<svg id="After" xmlns="http://www.w3.org/2000/svg" width="26.005" height="22.427" viewBox="0 0 26.005 22.427">
  <path id="Path_16" data-name="Path 16" d="M13.39,47.886.385,58.56c-.325.261-.473.155-.331-.237l3.407-10.2a2.389,2.389,0,0,0,0-1.417L.057,36.656c-.144-.391,0-.5.331-.24l13,10.53A.574.574,0,0,1,13.39,47.886Z" transform="translate(12.372 -36.275)" fill="#fff"/>
  <path id="Path_17" data-name="Path 17" d="M264.31,47.886,251.3,58.56c-.325.261-.473.155-.331-.237l3.407-10.2a2.389,2.389,0,0,0,0-1.417l-3.4-10.051c-.144-.391,0-.5.331-.24l13,10.53A.574.574,0,0,1,264.31,47.886Z" transform="translate(-250.92 -36.275)" fill="#fff"/>
</svg>
