<svg xmlns="http://www.w3.org/2000/svg" width="453.702" height="579.832" viewBox="0 0 453.702 579.832">
  <g id="Group_1799" data-name="Group 1799" transform="translate(-58.895 -153.392)">
    <g id="background_element" transform="translate(-442.62 122.427)" opacity="0.31">
      <path id="Path_42" data-name="Path 42" d="M671.468,580.539a14.484,14.484,0,0,1-2.6-2.2c-2.619-2.83-3.908-6.622-5-10.323-9.713-32.989-10.6-59.785-16.854-93.664-2.314-12.524-5.637-23.712-8.8-36.106-1.892-7.41-5.307-8.663-12.045-7.762a418.36,418.36,0,0,1-54.638,3.865c-17.853.029-28.107-10.065-29.062-28.078-.469-8.856-.244-17.744,2.586-26.113,2.423-7.17,1.715-13.411-2.887-19.019-4.867-5.928-4.784-11.576-.349-17.461,2.263-3.008,3.578-5.289-1.115-7.748-6.916-3.625-8.006-9.5-4.508-16.353a29.9,29.9,0,0,0,1.5-3.767c5.1-14.471,5.035-14.595-9.64-19.484-18.845-6.277-22.524-17.37-9.353-32.259,17.839-20.156,42.669-37.555,49.96-64.435,5.517-20.33,7.272-41.609,11.831-62.153,17.548-79.04,74.605-91.085,114.725-95.3,29.956-3.149,59.665-2.194,90.1-2.194,89.687,0,145.149,109.374,147.082,155.574,2.151,51.4-18.746,93.86-52.193,131.234-18.02,20.134-34.9,35.012-37.671,63.309-2.252,23.036,1.95,44.743,3.451,67.642.839,12.808,6.357,26.338,9.626,38.663,4.566,17.21,17.918,30.392-4.072,46.629-19.291,14.242-52.484,27.148-79.1,33.614s-56.977,7.468-84.176,7.5C682.471,584.156,676.147,583.659,671.468,580.539Z" transform="translate(22.659 20.994)" fill="rgba(25,0,133,0.09)"/>
      <g id="Group_65" data-name="Group 65" transform="translate(502.273 31.869)">
        <path id="Path_43" data-name="Path 43" d="M667.836,609.865c-8.129-27.609-23.385-112.095-27.98-130.1-2.045-8-5.736-9.353-13.015-8.384a451.946,451.946,0,0,1-59.034,4.177c-19.288.029-30.37-21.7-31.4-41.166-.508-9.564-.265-19.168,2.79-28.209,2.619-7.748,1.852-14.493-3.12-20.552-5.256-6.4-5.165-12.506-.374-18.866,2.445-3.247,3.865-5.714-1.206-8.369-7.472-3.919-8.648-10.269-4.871-17.672a33.2,33.2,0,0,0,1.624-4.068c5.507-15.634,5.434-15.768-10.418-21.05-20.359-6.782-24.341-18.768-10.105-34.856,13.56-15.321,28.034-29.76,42.6-44.028,9.168-8.979,11.95-22.539,14-34.7,2.459-14.628,8.285-61.787,10-70.62,21.584-111,138.1-101.121,164.456-97.678,254.872,33.3,126.831,179.2,20.512,164.441-26.19-3.632-58.038-15.855-60.748-46.469-4.835-54.718,61.209-50,78.757-48.347,66.516,6.277,84.071,64.158,79.683,100.035C852.317,266.1,766.2,254.474,721.537,287.3c-31.82,23.389-13.051,61.83,24.918,62.637" transform="translate(-502.273 -31.869)" fill="none" stroke="#c9c7e4" stroke-linecap="round" stroke-linejoin="round" stroke-width="1.5"/>
        <g id="Group_64" data-name="Group 64" transform="translate(153.62 51.395)">
          <path id="Path_44" data-name="Path 44" d="M586.374,94.4c-2.7,15.329-5.22,28.986,1.747,42.9,5.848,11.689,17.592,19.444,29.866,23.945" transform="translate(-441.762 81.34)" fill="none" stroke="#c9c7e4" stroke-linecap="round" stroke-linejoin="round" stroke-width="1.5"/>
          <path id="Path_45" data-name="Path 45" d="M568.472,128.033a19.387,19.387,0,0,1-14.421-10.5c-6.349-13.182,2.114-25.942,8.024-29.241,26.793-14.969,55.7,16.36,65.75,38.786" transform="translate(-525.531 54.971)" fill="none" stroke="#c9c7e4" stroke-linecap="round" stroke-linejoin="round" stroke-width="1.5"/>
          <path id="Path_46" data-name="Path 46" d="M600.035,69.868a17.07,17.07,0,0,0-13.476-9.19,14.9,14.9,0,0,0-14.141,7.646c-3.763,7.29-.142,16.538,5.823,22.168s13.818,8.707,21.042,12.59S613.667,112.3,616.2,120.1" transform="translate(-475.285 -7.538)" fill="none" stroke="#c9c7e4" stroke-linecap="round" stroke-linejoin="round" stroke-width="1.5"/>
          <path id="Path_47" data-name="Path 47" d="M637.775,94.372a21.735,21.735,0,0,1,2.375,13.066,14.862,14.862,0,0,1-7.3,10.784c-4.885,2.6-10.784,1.725-16.32,1.776-7.41.069-14.976,2.049-20.806,6.625s-9.662,11.976-8.917,19.35" transform="translate(-433.614 81.266)" fill="none" stroke="#c9c7e4" stroke-linecap="round" stroke-linejoin="round" stroke-width="1.5"/>
          <path id="Path_48" data-name="Path 48" d="M548.252,75.067C549.236,85.583,558,88.9,562.109,90s18,3.305,15.2,19.2" transform="translate(-534.859 30.448)" fill="none" stroke="#c9c7e4" stroke-linecap="round" stroke-linejoin="round" stroke-width="1.5"/>
          <path id="Path_49" data-name="Path 49" d="M562.341,140.022c-1.729-7.374-.283-18.536,5.129-23.836,16.974-16.622,40.752-4.918,42.68,8.474" transform="translate(-499.591 117.141)" fill="none" stroke="#c9c7e4" stroke-linecap="round" stroke-linejoin="round" stroke-width="1.5"/>
          <path id="Path_50" data-name="Path 50" d="M600.94,79.387a14.027,14.027,0,0,1,6.753-2.132c11.87-1.072,26.647-1.068,31.082,15.034,2.045,7.417-4.312,20.283-15.9,20.5" transform="translate(-396.165 35.169)" fill="none" stroke="#c9c7e4" stroke-linecap="round" stroke-linejoin="round" stroke-width="1.5"/>
          <path id="Path_51" data-name="Path 51" d="M572.474,115.551a25.609,25.609,0,0,1,14.261-15.285c1.878-.781,3.705,9.564.454,19.106-1.991,5.859-7.632,12.546-13.313,15.14C570.524,129.14,570.491,121.461,572.474,115.551Z" transform="translate(-474.615 96.672)" fill="#c9c7e4"/>
          <path id="Path_52" data-name="Path 52" d="M617.919,101.946A25.613,25.613,0,0,1,633.2,116.2c.777,1.878-9.564,3.7-19.11.458-5.855-1.994-12.543-7.632-15.136-13.313C604.33,99.992,612.009,99.963,617.919,101.946Z" transform="translate(-401.383 97.683)" fill="#c9c7e4"/>
          <path id="Path_53" data-name="Path 53" d="M610.059,84.218a25.593,25.593,0,0,1,14.257-15.285c1.878-.781,3.7,9.564.458,19.106-1.994,5.859-7.635,12.546-13.313,15.136C608.105,97.807,608.076,90.124,610.059,84.218Z" transform="translate(-375.681 14.192)" fill="#c9c7e4"/>
          <path id="Path_54" data-name="Path 54" d="M574.619,96.732A25.589,25.589,0,0,1,591.6,84.546c1.994-.4,1.754,10.105-3.3,18.823-3.106,5.354-9.949,10.8-16.026,12.23C570.035,109.675,571.514,102.137,574.619,96.732Z" transform="translate(-474.46 55.371)" fill="#c9c7e4"/>
          <path id="Path_55" data-name="Path 55" d="M557.54,81.333a25.612,25.612,0,0,1,20.9.105c1.845.85-4.515,9.208-13.727,13.3-5.655,2.51-14.395,2.906-20.152.49C546.232,89.117,551.855,83.887,557.54,81.333Z" transform="translate(-544.565 41.211)" fill="#c9c7e4"/>
          <path id="Path_56" data-name="Path 56" d="M565.084,90.294a25.589,25.589,0,0,1,20.9.1c1.849.85-4.511,9.212-13.727,13.3-5.656,2.51-14.4,2.9-20.152.49C553.777,98.078,559.4,92.844,565.084,90.294Z" transform="translate(-524.714 64.792)" fill="#c9c7e4"/>
          <path id="Path_57" data-name="Path 57" d="M569.046,108.558a25.605,25.605,0,0,1,12.742,16.571c.465,1.98-10.04,2.089-18.925-2.677-5.448-2.928-11.126-9.586-12.749-15.612C555.962,104.406,563.543,105.634,569.046,108.558Z" transform="translate(-529.958 110.672)" fill="#c9c7e4"/>
          <path id="Path_58" data-name="Path 58" d="M582.215,64.893A25.61,25.61,0,0,1,594.958,81.46c.461,1.98-10.04,2.089-18.924-2.677-5.452-2.928-11.126-9.586-12.753-15.612C569.128,60.741,576.708,61.969,582.215,64.893Z" transform="translate(-495.3 -4.274)" fill="#c9c7e4"/>
          <path id="Path_59" data-name="Path 59" d="M569.3,51.57a25.609,25.609,0,0,1,18.856,9.023c1.307,1.558-8.013,6.4-18.093,6.161-6.186-.145-14.257-3.52-18.43-8.162C555.748,53.779,563.067,51.45,569.3,51.57Z" transform="translate(-525.97 -31.416)" fill="#c9c7e4"/>
          <path id="Path_60" data-name="Path 60" d="M591.825,100.857a25.612,25.612,0,0,1,3.08-20.675c1.1-1.707,8.474,5.779,11.209,15.481,1.678,5.957.825,14.664-2.387,20.018C597.92,113.156,593.54,106.847,591.825,100.857Z" transform="translate(-422.655 43.27)" fill="#c9c7e4"/>
          <path id="Path_61" data-name="Path 61" d="M588.629,64.756a25.61,25.61,0,0,1,9.491-18.623c1.591-1.268,6.2,8.173,5.707,18.242-.3,6.179-3.879,14.163-8.623,18.216C590.5,78.356,588.353,70.982,588.629,64.756Z" transform="translate(-428.634 -46.018)" fill="#c9c7e4"/>
          <path id="Path_62" data-name="Path 62" d="M588.915,68.958a25.612,25.612,0,0,1,20.9.105c1.845.85-4.515,9.208-13.727,13.3-5.655,2.51-14.4,2.906-20.152.49C577.607,76.742,583.23,71.512,588.915,68.958Z" transform="translate(-461.974 8.635)" fill="#c9c7e4"/>
        </g>
      </g>
    </g>
  </g>
</svg>
