<svg xmlns="http://www.w3.org/2000/svg" width="26.005" height="22.427" viewBox="0 0 26.005 22.427">
  <g id="Before" transform="translate(0 -36.275)">
    <g id="Group_16" data-name="Group 16" transform="translate(0 36.275)">
      <path id="Path_16" data-name="Path 16" d="M.243,47.886,13.248,58.56c.325.261.473.155.331-.237l-3.407-10.2a2.389,2.389,0,0,1,0-1.417l3.4-10.051c.144-.391,0-.5-.331-.24l-13,10.53A.574.574,0,0,0,.243,47.886Z" transform="translate(0 -36.275)" fill="navy"/>
      <path id="Path_17" data-name="Path 17" d="M251.163,47.886,264.168,58.56c.325.261.473.155.331-.237l-3.407-10.2a2.389,2.389,0,0,1,0-1.417l3.4-10.051c.144-.391,0-.5-.331-.24l-13,10.53A.574.574,0,0,0,251.163,47.886Z" transform="translate(-238.548 -36.275)" fill="navy"/>
    </g>
  </g>
</svg>
