<svg xmlns="http://www.w3.org/2000/svg" width="24.203" height="24.816" viewBox="0 0 24.203 24.816">
  <g id="H_Call_us" transform="translate(-857.022 -137.158)">
    <path id="Path_1" data-name="Path 1" d="M873.948,180.713a11,11,0,0,1-6.431-2.221,28.837,28.837,0,0,1-8.424-8.823,12.971,12.971,0,0,1-2.072-6.66,5.525,5.525,0,0,1,2.163-4.457,3.036,3.036,0,0,1,3.953.181q1.323,1.241,2.568,2.565a3.066,3.066,0,0,1,.062,4.143c-.105.122-.219.237-.332.352-.664.669-.657.665-.164,1.49a14.751,14.751,0,0,0,5.44,5.316c.343.2.54.21.8-.109a3.5,3.5,0,0,1,2.145-1.381,2.987,2.987,0,0,1,2.671.811q1.313,1.253,2.567,2.566a3.054,3.054,0,0,1-.023,4.282A6.291,6.291,0,0,1,873.948,180.713Zm.065-1.461c.3-.029.611-.047.914-.087a4.334,4.334,0,0,0,2.938-1.5,1.575,1.575,0,0,0-.083-2.194q-1.213-1.25-2.465-2.463a1.589,1.589,0,0,0-2.264.022c-.348.335-.673.7-1.01,1.043-.507.523-.7.549-1.354.21a16.788,16.788,0,0,1-7.4-7.469.869.869,0,0,1,.193-1.167c.378-.351.747-.715,1.091-1.1a1.594,1.594,0,0,0-.048-2.336q-1.152-1.175-2.328-2.326a1.542,1.542,0,0,0-2.148-.121,4.119,4.119,0,0,0-1.554,3.443,10.229,10.229,0,0,0,1.152,4.311A25.974,25.974,0,0,0,869.38,177.9,8.8,8.8,0,0,0,874.013,179.252Z" transform="translate(0 -18.739)" fill="#190085"/>
    <path id="Path_2" data-name="Path 2" d="M996.5,146.792a6.834,6.834,0,0,1-.113,1.457c-.084.559-.447.844-.922.752-.415-.081-.62-.449-.543-.974a8.052,8.052,0,0,0-6.7-9.264,7.724,7.724,0,0,0-2.551.008c-.54.088-.924-.142-.99-.583-.069-.463.2-.785.742-.885a9.566,9.566,0,0,1,10.989,8.105A8.937,8.937,0,0,1,996.5,146.792Z" transform="translate(-115.283)" fill="#190085"/>
    <path id="Path_3" data-name="Path 3" d="M992.07,187.549a4.668,4.668,0,0,1-.286,1.658.761.761,0,0,1-.962.579.753.753,0,0,1-.447-1.025,3.62,3.62,0,0,0-1.119-4.069,3.528,3.528,0,0,0-3.308-.732c-.125.031-.246.079-.372.106a.757.757,0,0,1-.945-.459.74.74,0,0,1,.51-.958,5.037,5.037,0,0,1,2.949-.171A5.169,5.169,0,0,1,992.07,187.549Z" transform="translate(-115.207 -40.798)" fill="#190085"/>
  </g>
</svg>
