<svg xmlns="http://www.w3.org/2000/svg" width="53.786" height="63.457" viewBox="0 0 53.786 63.457">
  <g id="Child_Specialist" data-name="Child Specialist" transform="translate(-196.951 -277.868)">
    <path id="Path_1619" data-name="Path 1619" d="M228.091,322.247a2.31,2.31,0,0,0-.35.711c-.139,2.026-1.612,2.089-3.1,2.151a11.6,11.6,0,0,1-9.956-4.325,1.546,1.546,0,0,0-1.926-.573c-2.582.776-5.2,1.441-7.8,2.147a6.116,6.116,0,0,0-4.895,5.866c-.115,2.387-.009,4.785-.058,7.177-.018.893.493.851,1.109.85q11.1-.012,22.2,0c2.659,0,5.319.05,7.976-.024,1.522-.043.953,1.013,1.047,1.724.1.79,0,1.289-1.073,1.285q-16.086-.062-32.172-.012c-1.064,0-1.993-.272-2-1.424-.028-3.629-.381-7.283.151-10.882.583-3.941,3.068-6.362,6.865-7.43q5.3-1.49,10.622-2.89c.731-.192,1.059-.515.978-1.278a6.24,6.24,0,0,1,.012-1.327,3.007,3.007,0,0,0-1.047-2.8,8.725,8.725,0,0,1-2.514-4.735c-.156-.709-.367-1.283-1.252-1.469a2.177,2.177,0,0,1-1.605-1.48,17.424,17.424,0,0,1-.865-6,1.443,1.443,0,0,1,.359-.972c1.133-.89.869-1.982.753-3.2-.439-4.591.871-8.767,4.375-11.727a16.085,16.085,0,0,1,7.809-3.5c3.713-.57,7.521-.244,10.5,2.213a18.051,18.051,0,0,1,4.9,6.267,12.045,12.045,0,0,1,.927,7.766c-.133.619-.14,1.129.426,1.519a.934.934,0,0,1,.18.195c1.71,2.144.325,8.014-2.179,9.031a1.105,1.105,0,0,0-.752.96c-.482,2.909-2.341,4.98-4.264,7a3.434,3.434,0,0,0-1.2,2.426.811.811,0,0,1-.9.906c-.552-.03-.328-.622-.315-.956.039-.992-.047-1.463-1.268-.914a9.858,9.858,0,0,1-7.51.16c-.451-.158-.9-.335-1.489-.557-.168,2.083.471,4.508-2.44,5.12C218.378,322.554,222.238,323.535,228.091,322.247Zm-4.306-9.921a9.335,9.335,0,0,0,8.995-6.87c.14-.511.3-1.019.41-1.537.218-1.032.755-1.7,1.884-1.675.56.014.769-.2.834-.754.11-.921.312-1.832.467-2.748.079-.472.056-1.015-.552-.969-1.083.081-1.436-.692-1.9-1.384-.515-.774-1.042-1.54-1.543-2.322a.913.913,0,0,0-1.063-.521,11.957,11.957,0,0,1-9.279-2.266c-.721-.523-1.29-.789-2.045-.019a2.537,2.537,0,0,1-1.912.831c-2.554-.265-3.2,1.587-3.961,3.362-.227.528-.483,1.044-.739,1.559-.183.368-.436.746-.882.7-1.318-.13-1.2.653-1.037,1.516.124.651.248,1.305.319,1.963.075.7.255,1.129,1.122,1.073a1.539,1.539,0,0,1,1.586,1.338q.283,1.023.561,2.047A9.313,9.313,0,0,0,223.785,312.326Zm11.265-18.457a2.957,2.957,0,0,0,.215-.615,9.678,9.678,0,0,0-.981-5.667,12.98,12.98,0,0,0-4.728-5.326,10.142,10.142,0,0,0-11.3.491c-.587.4-1.126,1.02-1.766,1.151-1.6.327-2.127,1.59-2.746,2.778a9.717,9.717,0,0,0-1.076,6.573,11.8,11.8,0,0,0,1.119-2.08,1.483,1.483,0,0,1,1.972-1.015,3.536,3.536,0,0,0,3.34-.9c1.775-1.709,1.851-1.269,3.574-.074,2.205,1.53,4.57,2.814,7.274,2.316C232.349,291.053,234,291.448,235.05,293.869Z" transform="translate(0 0)" fill="navy"/>
    <path id="Path_1620" data-name="Path 1620" d="M320.3,429.267c0-.974-.017-1.949,0-2.922.025-1.1.183-2.139-1.211-2.7a1.847,1.847,0,0,1-.852-2.083c.106-.709.034-1.059-.851-1.227a2.413,2.413,0,0,1-1.318-4.1c.43-.506.632-.755.07-1.371a2.428,2.428,0,0,1,1.274-4.2c.72-.18.875-.39.844-1.114a2.457,2.457,0,0,1,3.6-2.554c.657.275.856.189,1.208-.395a2.455,2.455,0,0,1,4.462.039c.37.62.608.618,1.221.353a2.463,2.463,0,0,1,3.584,2.566c-.042.745.136.93.851,1.1a2.426,2.426,0,0,1,1.346,4.112c-.505.582-.617.84-.034,1.467a2.4,2.4,0,0,1-1.288,4.1c-.869.178-.958.513-.86,1.23a2.048,2.048,0,0,1-.855,2.108c-.765.465-.767,1.063-.762,1.786.018,2.568,0,5.137.006,7.7,0,.591,0,1.183-.611,1.5s-1.08-.056-1.568-.387c-1.049-.713-1.953-2.145-3.115-2.036-1.062.1-2.03,1.3-3.017,2.042-.482.364-.959.691-1.565.376-.563-.292-.547-.859-.547-1.4q0-1.992,0-3.985Zm9.816-19.289c.028-1.147.028-1.147-1.068-.761a2.394,2.394,0,0,1-3.229-1.259c-.376-.625-.549-.864-1.029-.057-.923,1.55-1.729,1.8-3.559,1.166-.683-.237-.848-.123-.827.6.056,1.932-.4,2.554-2.218,3.01-.759.19-.729.386-.286.936,1.2,1.495,1.224,2.365.032,3.749-.591.686-.383.773.362.951,1.658.4,2.212,1.2,2.118,2.986-.039.743.041.981.85.642a2.413,2.413,0,0,1,3.487,1.086c.368.593.539.894,1.046.079.977-1.569,1.775-1.812,3.57-1.141.727.272.821.074.8-.608-.055-1.922.391-2.555,2.208-3.042.715-.192.788-.341.315-.925-1.231-1.523-1.242-2.3-.041-3.74.518-.622.478-.813-.335-.99A2.415,2.415,0,0,1,330.113,409.978ZM328.6,431.43c0-2.3.006-4.457-.007-6.614,0-.33.149-.773-.28-.938-.555-.213-.612.332-.824.635a2.518,2.518,0,0,1-4.324.127c-.17-.227-.158-.61-.594-.68v7.434c1.117-.558,1.774-1.749,2.906-1.769C326.667,429.6,327.311,430.91,328.6,431.43Z" transform="translate(-86.91 -93.452)" fill="navy"/>
    <path id="Path_1621" data-name="Path 1621" d="M381.315,451.377a8.173,8.173,0,0,1,1.2,4.269c.027,2.966.011,5.932,0,8.9-.006,1.556-.494,2.017-2.085,2.023-.664,0-1.328,0-1.992,0-1.674,0-2.284-.914-1.75-2.55.213-.652.72-.384,1.1-.4,1.726-.071,1.732-.053,1.741-1.809.007-1.416-.009-2.832,0-4.248s-.255-2.883,1.1-3.992C381.191,453.105,381.089,452.21,381.315,451.377Z" transform="translate(-131.795 -127.361)" fill="navy"/>
    <path id="Path_1622" data-name="Path 1622" d="M333,429.546a5.244,5.244,0,1,1,5.265,5.2A5.2,5.2,0,0,1,333,429.546Zm8.345-.119a3.055,3.055,0,0,0-3.161-3.047,3.092,3.092,0,0,0-3.047,3.176,3.1,3.1,0,0,0,6.208-.128Z" transform="translate(-99.865 -107.442)" fill="navy"/>
  </g>
</svg>
