<svg xmlns="http://www.w3.org/2000/svg" width="39.872" height="39.869" viewBox="0 0 39.872 39.869">
  <g id="Clinical_Services" transform="translate(-2707.603 -435.04)">
    <path id="Path_22" data-name="Path 22" d="M2727.445,474.908q-9.1,0-18.2,0c-1.363,0-1.637-.274-1.637-1.635q0-11.341,0-22.682c0-1.32.27-1.589,1.569-1.592,1.183,0,2.367-.041,3.547.015.674.033.894-.121.878-.847-.052-2.519-.023-5.04-.019-7.56,0-1.279.263-1.546,1.509-1.55,1.276,0,2.552-.02,3.827.009.472.011.626-.116.652-.613.123-2.411,1.19-3.408,3.585-3.41q4.434,0,8.868,0c2.264,0,3.427,1.084,3.487,3.317.016.592.2.726.75.708,1.243-.039,2.489-.016,3.734-.011s1.506.27,1.508,1.552c0,2.52.034,5.041-.019,7.56-.015.729.208.876.88.846,1.242-.055,2.489-.022,3.733-.014,1.029.006,1.375.314,1.377,1.311q.013,11.621,0,23.242c0,1.059-.356,1.353-1.541,1.354Q2736.686,474.911,2727.445,474.908Zm12.041-17.976v-3.266c0-3.919-.023-7.838.02-11.756.008-.756-.214-.958-.93-.9a16.559,16.559,0,0,1-2.331,0c-.579-.036-.743.155-.734.73.034,1.959.021,3.919.01,5.878a3.078,3.078,0,0,1-3.426,3.39q-4.572.013-9.145,0a3.076,3.076,0,0,1-3.4-3.42c-.008-1.959-.016-3.919.008-5.878.006-.507-.109-.728-.668-.7a22.456,22.456,0,0,1-2.611,0c-.613-.04-.7.2-.7.746q.022,15.208-.006,30.417c0,.656.225.746.79.736,1.772-.032,3.546-.044,5.318,0,.672.018.9-.119.879-.847-.056-2.176-.022-4.353-.019-6.531,0-1.328.267-1.6,1.56-1.6q3.453,0,6.905,0c1.245,0,1.526.281,1.529,1.536,0,2.239.022,4.479-.013,6.718-.009.572.134.735.716.721,1.8-.041,3.609-.054,5.411,0,.713.023.858-.182.853-.867C2739.471,467.009,2739.486,461.97,2739.486,456.932Zm-5.974-13.886c0-1.584-.007-3.168,0-4.752.005-.853-.4-1.246-1.25-1.244q-4.752.013-9.5,0a1.053,1.053,0,0,0-1.2,1.2q0,4.752,0,9.5a1.085,1.085,0,0,0,1.25,1.245c3.137-.008,6.274,0,9.411-.006.942,0,1.278-.344,1.285-1.291C2733.52,446.152,2733.511,444.6,2733.511,443.046Zm-23.895,18.916c0,3.418.009,6.837-.01,10.255,0,.494.076.722.643.691.9-.05,1.8-.036,2.7,0,.465.016.638-.092.637-.6q-.026-10.349,0-20.7c0-.523-.193-.616-.65-.6a23.84,23.84,0,0,1-2.516-.006c-.645-.045-.83.139-.823.8C2709.636,455.187,2709.617,458.574,2709.617,461.962Zm31.882-.045c0,3.387.016,6.775-.015,10.162-.006.624.108.888.794.831a14.334,14.334,0,0,1,2.328,0c.678.054.877-.123.873-.844-.034-5.967-.016-11.934-.022-17.9,0-1.02.354-2.4-.164-2.963-.589-.635-1.989-.1-3.027-.2-.711-.071-.785.248-.78.848C2741.513,455.2,2741.5,458.56,2741.5,461.916Zm-10.976,7.434c0-.963-.018-1.926.008-2.888.011-.408-.123-.528-.527-.523q-2.469.03-4.938,0c-.413-.005-.524.131-.52.53.017,1.956.021,3.913,0,5.87-.005.454.134.573.576.567q2.422-.037,4.845,0c.451.007.583-.128.569-.574C2730.5,471.338,2730.523,470.344,2730.523,469.35Z" transform="translate(0 0)" fill="#3267ff"/>
    <path id="Path_23" data-name="Path 23" d="M2773.605,564.8a9.325,9.325,0,0,1-1.022-.007.936.936,0,0,1-.884-.921.9.9,0,0,1,.763-1.017,7.774,7.774,0,0,1,2.406-.008.9.9,0,0,1,.8.992.943.943,0,0,1-.944.96c-.37.027-.744,0-1.116,0Z" transform="translate(-52.118 -103.859)" fill="#3267ff"/>
    <path id="Path_24" data-name="Path 24" d="M2805.62,564.981c-.341,0-.685.027-1.023-.006a.943.943,0,0,1-.92-.984.889.889,0,0,1,.824-.969,14.63,14.63,0,0,1,2.317,0,.89.89,0,0,1,.831.963.94.94,0,0,1-.913.99C2806.366,565.011,2805.991,564.981,2805.62,564.981Z" transform="translate(-78.124 -104.035)" fill="#3267ff"/>
    <path id="Path_25" data-name="Path 25" d="M2837.583,564.91c-.31,0-.621.013-.93,0a.953.953,0,0,1-.993-1.009.934.934,0,0,1,.932-.977,14.379,14.379,0,0,1,2.136.007.92.92,0,0,1,.9,1,.955.955,0,0,1-1.022.98C2838.265,564.92,2837.924,564.911,2837.583,564.91Z" transform="translate(-104.132 -103.96)" fill="#3267ff"/>
    <path id="Path_26" data-name="Path 26" d="M2773.734,538.435c-.342,0-.684.011-1.026,0a.908.908,0,0,1-.952-.942.886.886,0,0,1,.9-.986c.714-.031,1.431-.03,2.145,0a.886.886,0,0,1,.905.98.905.905,0,0,1-.944.949C2774.419,538.447,2774.077,538.434,2773.734,538.435Z" transform="translate(-52.167 -82.489)" fill="#3267ff"/>
    <path id="Path_27" data-name="Path 27" d="M2805.713,538.434c-.342,0-.685.011-1.026,0a.907.907,0,0,1-.951-.944.886.886,0,0,1,.9-.985c.713-.031,1.431-.03,2.145,0a.886.886,0,0,1,.9.981.906.906,0,0,1-.946.948C2806.4,538.446,2806.055,538.434,2805.713,538.434Z" transform="translate(-78.172 -82.489)" fill="#3267ff"/>
    <path id="Path_28" data-name="Path 28" d="M2837.7,536.525c.342,0,.685-.012,1.026,0a.9.9,0,0,1,.942.951.888.888,0,0,1-.908.978c-.714.028-1.431.03-2.145,0a.885.885,0,0,1-.9-.989.908.908,0,0,1,.955-.94C2837.011,536.514,2837.353,536.524,2837.7,536.525Z" transform="translate(-104.176 -82.521)" fill="#3267ff"/>
    <path id="Path_29" data-name="Path 29" d="M2801.082,460.566a.948.948,0,0,1-.977,1.011c-.64.059-1.445-.282-1.877.159-.392.4-.089,1.184-.127,1.8s-.323,1.007-.967,1.013-.936-.365-.992-.989.3-1.48-.177-1.856c-.389-.309-1.186-.1-1.8-.129a.9.9,0,0,1-.99-.986c.006-.644.391-.918,1.012-.97s1.479.3,1.85-.188c.3-.4.086-1.193.115-1.811a.974.974,0,0,1,1.947-.025c.062.642-.278,1.456.147,1.883s1.24.088,1.882.148A.94.94,0,0,1,2801.082,460.566Z" transform="translate(-69.583 -17.573)" fill="#3267ff"/>
  </g>
</svg>
