<svg xmlns="http://www.w3.org/2000/svg" width="22.427" height="26.005" viewBox="0 0 22.427 26.005">
  <g id="During" transform="translate(0 26.005) rotate(-90)">
    <g id="Group_16" data-name="Group 16" transform="translate(0 0)">
      <path id="Path_16" data-name="Path 16" d="M.243,10.816,13.248.143c.325-.261.473-.155.331.237l-3.407,10.2a2.389,2.389,0,0,0,0,1.417l3.4,10.051c.144.391,0,.5-.331.24l-13-10.53A.574.574,0,0,1,.243,10.816Z" fill="navy"/>
      <path id="Path_17" data-name="Path 17" d="M.243,10.816,13.248.143c.325-.261.473-.155.331.237l-3.407,10.2a2.389,2.389,0,0,0,0,1.417l3.4,10.051c.144.391,0,.5-.331.24l-13-10.53A.574.574,0,0,1,.243,10.816Z" transform="translate(12.372)" fill="navy"/>
    </g>
  </g>
</svg>
