<svg xmlns="http://www.w3.org/2000/svg" width="26.862" height="26.863" viewBox="0 0 26.862 26.863">
  <path id="F_Call_US" d="M5072.595,1010.337a13.109,13.109,0,0,1-4.333-1.237,28.821,28.821,0,0,1-14.954-15.94,13.485,13.485,0,0,1-.556-2.218,2.161,2.161,0,0,1,.3-1.65,23.138,23.138,0,0,1,4.119-4.989,5.5,5.5,0,0,1,.528-.414,1.6,1.6,0,0,1,2.438.344,30.469,30.469,0,0,1,3.387,5.579c.575,1.288.439,1.8-.619,2.751-.375.337-.753.671-1.149.982a.417.417,0,0,0-.135.571,12.246,12.246,0,0,0,7.274,7.284.456.456,0,0,0,.612-.165c.417-.5.848-.994,1.294-1.47a1.65,1.65,0,0,1,1.929-.449,16.676,16.676,0,0,1,3.027,1.549q1.423.885,2.8,1.845c1.181.824,1.329,1.718.411,2.826a20.192,20.192,0,0,1-5.525,4.583A1.152,1.152,0,0,1,5072.595,1010.337Zm0-1.8a.489.489,0,0,0,.357-.135,25.109,25.109,0,0,0,4.529-3.811c.265-.282.126-.375-.1-.535a33.611,33.611,0,0,0-4.895-2.908.482.482,0,0,0-.7.163,19.827,19.827,0,0,1-1.6,1.8.963.963,0,0,1-1.011.254,12.223,12.223,0,0,1-3.646-1.655,13.784,13.784,0,0,1-5.851-7.788,1.05,1.05,0,0,1,.291-1.152c.548-.565,1.172-1.04,1.76-1.558a.465.465,0,0,0,.15-.659,35.259,35.259,0,0,0-2.9-4.9c-.235-.333-.368-.278-.62-.037-1.056,1.007-1.954,2.153-2.92,3.24a3.09,3.09,0,0,0-.575,3.368,23.62,23.62,0,0,0,5.089,8.464,26.168,26.168,0,0,0,9.575,7.01A12.829,12.829,0,0,0,5072.592,1008.538Z" transform="translate(-5052.703 -983.478)" fill="#fff"/>
</svg>
