<svg xmlns="http://www.w3.org/2000/svg" width="28.23" height="19.847" viewBox="0 0 28.23 19.847">
  <path id="F_Email" d="M4038.758,945.625q-5.648,0-11.3,0a2.536,2.536,0,0,1-2.817-2.827q0-7.108,0-14.217a2.529,2.529,0,0,1,2.788-2.8q11.325,0,22.65,0a2.527,2.527,0,0,1,2.79,2.8q0,7.136,0,14.272a2.52,2.52,0,0,1-2.76,2.774Q4044.435,945.628,4038.758,945.625Zm-11.056-18.17c3.052,3.1,6.12,6.245,9.216,9.36a2.455,2.455,0,0,0,3.748-.062q4.543-4.5,9.069-9.018c.075-.075.242-.119.175-.281Zm22.137,16.5c-2.235-2.282-4.495-4.584-6.745-6.895-.2-.2-.29-.1-.431.042-.388.391-.77.791-1.183,1.153a4.091,4.091,0,0,1-5.431.013,9.817,9.817,0,0,1-1.061-1.04c-.29-.341-.462-.281-.752.01-2.112,2.121-4.242,4.224-6.366,6.334-.108.107-.207.223-.354.383Zm-23.387-15.329-.113.094v13.988l.13.089q3.357-3.417,6.72-6.83c.208-.21.2-.318,0-.522Q4029.81,932.044,4026.452,928.626Zm24.6,14.167.128-.109V928.511c-2.355,2.388-4.593,4.666-6.847,6.93-.246.247-.16.362.036.561Q4047.713,939.391,4051.048,942.794Z" transform="translate(-4024.643 -925.778)" fill="#fff"/>
</svg>
