<svg xmlns="http://www.w3.org/2000/svg" width="24.732" height="33.021" viewBox="0 0 24.732 33.021">
  <g id="F_Location" transform="translate(-948 -4357)">
    <path id="Path_37" data-name="Path 37" d="M4464.432,921.2a12.452,12.452,0,0,1,12.363,10.781,14.873,14.873,0,0,1-1.77,8.555,52.829,52.829,0,0,1-9.62,13.207,1.018,1.018,0,0,1-1.673.064,51.247,51.247,0,0,1-10.081-14.118,14.969,14.969,0,0,1-1.487-6.525,12.447,12.447,0,0,1,10.591-11.827A9.646,9.646,0,0,1,4464.432,921.2Zm.1,2.065a10.343,10.343,0,0,0-10.3,10.006,12.733,12.733,0,0,0,1.323,5.646c2.12,4.711,5.317,8.68,8.73,12.494.306.341.417.074.58-.1a62.955,62.955,0,0,0,4.916-6.034,30.2,30.2,0,0,0,4.608-8.771A10.3,10.3,0,0,0,4464.532,923.263Z" transform="translate(-3504.162 3435.807)" fill="#fff"/>
    <path id="Path_38" data-name="Path 38" d="M4512.516,975.425a6.184,6.184,0,1,1-6.169-6.2A6.2,6.2,0,0,1,4512.516,975.425Zm-6.154-4.137a4.122,4.122,0,1,0,4.091,4.169A4.133,4.133,0,0,0,4506.362,971.288Z" transform="translate(-3545.959 3393.969)" fill="#fff"/>
  </g>
</svg>
