<svg xmlns="http://www.w3.org/2000/svg" width="629" height="69.026" viewBox="0 0 629 69.026">
  <g id="F_Logo" transform="translate(-33.8 -18.1)">
    <g id="Group_1742" data-name="Group 1742" transform="translate(189.808 18.1)">
      <path id="Path_1545" data-name="Path 1545" d="M156.3,41.251h7.259c0,3.184,2.674,4.712,5.6,4.712,2.674,0,5.349-1.4,5.349-3.948s-3.056-3.311-6.622-4.075c-4.967-1.274-11.08-2.674-11.08-9.806,0-6.368,4.712-9.934,12.1-9.934,7.641,0,11.971,4.075,11.971,10.7h-7.132c0-2.8-2.42-4.2-5.094-4.2-2.292,0-4.712,1.019-4.712,3.184,0,2.292,2.929,3.056,6.368,3.948,5.094,1.274,11.462,2.8,11.462,10.316,0,7.132-5.731,10.7-12.608,10.7C161.649,52.713,156.3,48.383,156.3,41.251Z" transform="translate(-156.3 -18.073)" fill="#fff"/>
      <path id="Path_1546" data-name="Path 1546" d="M207.1,18.7V51.939H199.84V38.185H187.359V51.939H180.1V18.7h7.259V31.563H199.84V18.7Z" transform="translate(-149.79 -17.936)" fill="#fff"/>
      <path id="Path_1547" data-name="Path 1547" d="M227,45.19v6.75H206.5V18.7h19.995v6.622H213.759v6.622h11.589v6.5H213.759v6.877H227Z" transform="translate(-142.569 -17.936)" fill="#fff"/>
      <path id="Path_1548" data-name="Path 1548" d="M226.6,18.7h7.259V51.939H226.6Z" transform="translate(-137.07 -17.936)" fill="#fff"/>
      <path id="Path_1549" data-name="Path 1549" d="M257.495,45.317v6.622H237.5V18.7h7.259V45.317Z" transform="translate(-134.089 -17.936)" fill="#fff"/>
      <path id="Path_1550" data-name="Path 1550" d="M276.678,45.572H263.434l-2.292,6.368H253.5L266.49,18.7h6.75l13.5,33.239h-7.769Zm-10.952-6.24h8.787l-4.33-11.844Z" transform="translate(-129.712 -17.936)" fill="#fff"/>
      <path id="Path_1551" data-name="Path 1551" d="M305.093,52.868A16.916,16.916,0,0,1,287.9,35.547c0-9.934,7.386-17.447,17.193-17.447a15.935,15.935,0,0,1,16.047,13.245H313.88a9.172,9.172,0,0,0-8.915-6.368c-5.6,0-9.934,4.585-9.934,10.57s4.2,10.443,9.934,10.443a9,9,0,0,0,8.915-6.877h7.259a16.055,16.055,0,0,1-16.047,13.754Z" transform="translate(-120.303 -18.1)" fill="#fff"/>
      <path id="Path_1552" data-name="Path 1552" d="M315.9,35.42c0-9.934,7.641-17.32,17.7-17.32s17.7,7.387,17.7,17.32-7.514,17.32-17.7,17.32C323.414,52.868,315.9,45.354,315.9,35.42Zm28.145,0a10.444,10.444,0,1,0-20.886,0A10.358,10.358,0,0,0,333.6,45.99,10.207,10.207,0,0,0,344.045,35.42Z" transform="translate(-112.644 -18.1)" fill="#fff"/>
      <path id="Path_1553" data-name="Path 1553" d="M374.3,18.7V51.939h-7.132V38.185H354.559V51.939H347.3V18.7h7.259V31.563H367.04V18.7Z" transform="translate(-104.055 -17.936)" fill="#fff"/>
      <path id="Path_1554" data-name="Path 1554" d="M394.2,45.19v6.75H373.7V18.7h19.995v6.622H380.959v6.622h11.589v6.5H380.959v6.877H394.2Z" transform="translate(-96.833 -17.936)" fill="#fff"/>
      <path id="Path_1555" data-name="Path 1555" d="M421.918,18.7V51.939h-5.986L400.9,31.181V51.939h-7V18.7H400.4l14.646,20.249V18.7Z" transform="translate(-91.308 -17.936)" fill="#fff"/>
      <path id="Path_1556" data-name="Path 1556" d="M436.559,25.322v7.259h11.462v6.5H436.559V51.812H429.3V18.7h19.867v6.622H436.559Z" transform="translate(-81.624 -17.936)" fill="#fff"/>
      <path id="Path_1557" data-name="Path 1557" d="M448.3,39.459V18.7h7.259V39.077c0,4.2,2.674,6.75,6.5,6.75s6.495-2.674,6.495-6.75V18.7h7.259V39.459c0,7.769-5.858,13.245-13.754,13.245S448.3,47.227,448.3,39.459Z" transform="translate(-76.427 -17.936)" fill="#fff"/>
      <path id="Path_1558" data-name="Path 1558" d="M486.644,40.6h-4.585V51.939H474.8V18.7h13.372c6.622,0,11.589,4.585,11.589,10.952a10.584,10.584,0,0,1-6.113,9.679l7.387,12.608h-8.023Zm-4.712-6.622h5.731c3.057,0,4.839-1.783,4.839-4.33s-1.783-4.33-4.839-4.33h-5.731Z" transform="translate(-69.179 -17.936)" fill="#fff"/>
      <path id="Path_1559" data-name="Path 1559" d="M510.544,40.6h-4.585V51.939H498.7V18.7h13.372c6.622,0,11.589,4.585,11.589,10.952a10.584,10.584,0,0,1-6.113,9.679l7.386,12.608h-8.023Zm-4.712-6.622h5.731c3.056,0,4.839-1.783,4.839-4.33s-1.783-4.33-4.839-4.33h-5.731Z" transform="translate(-62.641 -17.936)" fill="#fff"/>
      <path id="Path_1560" data-name="Path 1560" d="M522.182,50.462a3.879,3.879,0,0,0,3.566-4.075H521.8V39h7.514v6.877c0,4.839-2.929,7.641-7.132,8.023V50.462Z" transform="translate(-56.322 -12.383)" fill="#fff"/>
    </g>
    <g id="Group_1744" data-name="Group 1744" transform="translate(190.572 63.438)">
      <g id="Group_1743" data-name="Group 1743">
        <path id="Path_1561" data-name="Path 1561" d="M156.9,73.185V53.7h8.023a9.61,9.61,0,0,1,4.457.891,5.843,5.843,0,0,1,2.8,2.42,7.2,7.2,0,0,1,0,7.387,7.455,7.455,0,0,1-2.8,2.42,11.554,11.554,0,0,1-4.457.891h-5.986l1.656-1.656v7.132Zm3.566-6.877-1.656-1.783h5.858a5.413,5.413,0,0,0,3.566-1.019,3.649,3.649,0,0,0,1.274-2.8,3.521,3.521,0,0,0-1.274-2.929,5.663,5.663,0,0,0-3.566-1.019H158.81l1.656-1.783Z" transform="translate(-156.9 -53.7)" fill="#fff"/>
        <path id="Path_1562" data-name="Path 1562" d="M176.766,73.185H173.2V53.7h3.566Zm10.443-8.405h-10.7V61.723h10.7Zm-.255-11.08h3.566V73.185h-3.566Z" transform="translate(-152.441 -53.7)" fill="#fff"/>
        <path id="Path_1563" data-name="Path 1563" d="M192.692,70.185a2.682,2.682,0,0,1-1.656-.637,1.956,1.956,0,0,1-.637-1.656,2.2,2.2,0,0,1,.637-1.656,2.471,2.471,0,0,1,3.311,0,1.956,1.956,0,0,1,.637,1.656,2.421,2.421,0,0,1-.637,1.656A2.682,2.682,0,0,1,192.692,70.185Z" transform="translate(-147.736 -50.445)" fill="#fff"/>
        <path id="Path_1564" data-name="Path 1564" d="M197.6,73.185V53.7h8.533a11.374,11.374,0,0,1,5.6,1.274,8.784,8.784,0,0,1,3.693,3.439,9.86,9.86,0,0,1,1.4,5.094,9.529,9.529,0,0,1-1.4,5.094,10.669,10.669,0,0,1-3.693,3.439,12.967,12.967,0,0,1-5.6,1.274H197.6Zm3.566-3.056h4.712a7.377,7.377,0,0,0,3.821-.891,6.014,6.014,0,0,0,2.42-2.292,7.365,7.365,0,0,0,.891-3.566,6.461,6.461,0,0,0-.891-3.566,5.972,5.972,0,0,0-2.42-2.292,8.457,8.457,0,0,0-3.821-.891h-4.712Z" transform="translate(-145.767 -53.7)" fill="#fff"/>
        <path id="Path_1565" data-name="Path 1565" d="M216.992,70.185a2.682,2.682,0,0,1-1.656-.637,1.956,1.956,0,0,1-.637-1.656,2.2,2.2,0,0,1,.637-1.656,2.471,2.471,0,0,1,3.311,0,1.956,1.956,0,0,1,.637,1.656,2.421,2.421,0,0,1-.637,1.656A2.682,2.682,0,0,1,216.992,70.185Z" transform="translate(-141.09 -50.445)" fill="#fff"/>
        <path id="Path_1566" data-name="Path 1566" d="M220.927,74.16l1.656-6.113.509,2.038a2.682,2.682,0,0,1-1.656-.637,2.471,2.471,0,0,1,0-3.311,2.421,2.421,0,0,1,1.656-.637,2.682,2.682,0,0,1,1.656.637,1.955,1.955,0,0,1,.637,1.656v.637c0,.255-.127.509-.127.764a8.779,8.779,0,0,0-.382,1.019l-1.4,3.948h-2.547Z" transform="translate(-139.421 -50.472)" fill="#fff"/>
        <path id="Path_1567" data-name="Path 1567" d="M232.4,73.185,241.187,53.7h3.566l8.787,19.485H249.72L242.206,55.61h1.4l-7.387,17.575Zm4.075-4.457,1.019-2.8h10.57l1.019,2.8Z" transform="translate(-136.248 -53.7)" fill="#fff"/>
        <path id="Path_1568" data-name="Path 1568" d="M253.492,70.185a2.682,2.682,0,0,1-1.656-.637,1.956,1.956,0,0,1-.637-1.656,2.2,2.2,0,0,1,.637-1.656,2.471,2.471,0,0,1,3.311,0,1.956,1.956,0,0,1,.637,1.656,2.421,2.421,0,0,1-.637,1.656A2.682,2.682,0,0,1,253.492,70.185Z" transform="translate(-131.105 -50.445)" fill="#fff"/>
        <path id="Path_1569" data-name="Path 1569" d="M258.4,73.185V53.7h9.169a9.213,9.213,0,0,1,5.349,1.4,4.2,4.2,0,0,1,1.783,3.693,4.709,4.709,0,0,1-.764,2.674,4.76,4.76,0,0,1-1.91,1.656,5.919,5.919,0,0,1-2.674.637l.509-1.019a7.075,7.075,0,0,1,2.929.637,4.633,4.633,0,0,1,2.038,1.783,4.843,4.843,0,0,1,.764,2.8,4.77,4.77,0,0,1-1.91,3.948c-1.274,1.019-3.056,1.274-5.6,1.274Zm3.566-2.8h5.858a7.019,7.019,0,0,0,3.184-.637,2.618,2.618,0,0,0,0-4.33,5.666,5.666,0,0,0-3.184-.637h-6.113v-2.8h5.349a5.879,5.879,0,0,0,2.929-.637,2.547,2.547,0,0,0,0-4.075,4.775,4.775,0,0,0-2.929-.637h-5.094Z" transform="translate(-129.136 -53.7)" fill="#fff"/>
        <path id="Path_1570" data-name="Path 1570" d="M276.792,70.185a2.682,2.682,0,0,1-1.656-.637,1.956,1.956,0,0,1-.637-1.656,2.2,2.2,0,0,1,.637-1.656,2.471,2.471,0,0,1,3.311,0,2.293,2.293,0,0,1-1.656,3.948Z" transform="translate(-124.732 -50.445)" fill="#fff"/>
        <path id="Path_1571" data-name="Path 1571" d="M281.7,73.185V53.7h2.929l12.226,15.028h-1.528V53.7h3.566V73.185h-2.8L283.865,58.157h1.528V73.185Z" transform="translate(-122.763 -53.7)" fill="#fff"/>
        <path id="Path_1572" data-name="Path 1572" d="M301.192,70.185a2.682,2.682,0,0,1-1.656-.637,1.955,1.955,0,0,1-.637-1.656,2.2,2.2,0,0,1,.637-1.656,2.471,2.471,0,0,1,3.311,0,1.956,1.956,0,0,1,.637,1.656,2.184,2.184,0,0,1-2.292,2.292Z" transform="translate(-118.058 -50.445)" fill="#fff"/>
      </g>
    </g>
    <g id="Group_1745" data-name="Group 1745" transform="translate(33.8 19.374)">
      <path id="Path_1573" data-name="Path 1573" d="M76.6,19.832l1.189,12.106-1.189.216c-2.7-5.729-5.945-9.187-9.836-10.484a12.958,12.958,0,0,0-3.351-.432c-3.351,0-5.62,2.054-6.7,6.053a2.38,2.38,0,0,0-.108.865c0,1.513,1.513,4.107,4.54,7.566A94.4,94.4,0,0,1,67.2,43.395c2.378,3.567,3.567,6.809,3.567,9.836,0,3.567-1.513,7.134-4.431,10.7a20.36,20.36,0,0,1-9.62,6.593,21.1,21.1,0,0,1-6.053.757,23.134,23.134,0,0,1-9.836-2.054,12.9,12.9,0,0,1-6.7-8.106,11.543,11.543,0,0,1-.324-2.7,8.041,8.041,0,0,1,2.918-6.269,9.1,9.1,0,0,1,6.269-2.378,7.021,7.021,0,0,1,6.7,4.107L44.068,58.2a2.981,2.981,0,0,0-2.918-2.162,5.333,5.333,0,0,0-2.486.649,3.789,3.789,0,0,0-2.054,3.675,6.863,6.863,0,0,0,1.081,3.675,8.434,8.434,0,0,0,2.7,2.81,19.6,19.6,0,0,0,10.484,2.7,15.607,15.607,0,0,0,10.484-3.567,11.1,11.1,0,0,0,4.215-8.863,14.826,14.826,0,0,0-.973-5.3,6.969,6.969,0,0,0-1.729-2.81c-.324-.54-2.81-3.243-7.242-8.323a11.35,11.35,0,0,1-3.243-7.782c0-3.459,1.405-6.7,4.107-9.944Q59.741,19.4,65.9,19.4a12.155,12.155,0,0,1,4.215.973,13.215,13.215,0,0,0,3.459.973,1.921,1.921,0,0,0,1.837-1.621Z" transform="translate(-33.8 -19.018)" fill="#fff"/>
      <path id="Path_1574" data-name="Path 1574" d="M94.978,21.265h38.8c2.331.167,3.5-.333,3.5-1.832l1.332-.333,3.83,15.32-1.5,1.5c-3.164-8.159-9.824-12.322-19.815-12.489-3.83.167-6.661,1.332-8.492,3.33-.5.5-1.832,3.164-4.163,7.826-1,2-3.83,7.826-8.326,17.651q10.491-9.991,19.482-9.991a9.492,9.492,0,0,1,5.162,1.166L117.957,53.4a9.141,9.141,0,0,0-6.661-3q-6.744,0-13.987,8.992c-3,4.662-5,7.993-6.161,10.324a5.709,5.709,0,0,0-.666,2.664c0,3,2.664,4.5,7.826,4.329v2.664H70.5v-2.5a11.437,11.437,0,0,0,9.658-3.33c.5-.833,2.5-5,6.161-12.822.833-1.665,5.995-12.655,15.153-33.137a3.1,3.1,0,0,0,.666-1.832q0-2.248-4.5-2.5h-3v-2Z" transform="translate(-40.68 -19.1)" fill="#fff"/>
      <path id="Path_1575" data-name="Path 1575" d="M129.439,56.969,121.81,63.4a17.549,17.549,0,0,1-12.225-3.769C107.195,57.429,106,53.844,106,48.788A27.186,27.186,0,0,1,109.033,36.1a42.619,42.619,0,0,1,8-11.03c3.861-3.861,7.629-5.791,11.49-5.975a14.638,14.638,0,0,1,6.158,1.563,3.688,3.688,0,0,0,1.379.276c1.011,0,1.471-.552,1.563-1.563h1.011l1.287,11.306-1.563.184c-1.287-4.412-3.217-7.445-5.7-9.008a6.792,6.792,0,0,0-3.585-1.1c-2.758,0-5.791,2.206-9.192,6.526a30.648,30.648,0,0,0-5.515,9.376q-2.206,7.307-2.206,11.306c0,3.952,1.195,6.894,3.493,8.824a10.591,10.591,0,0,0,6.526,2.39,9.32,9.32,0,0,0,6.342-2.666Z" transform="translate(-18.489 -2.012)" fill="#fff"/>
    </g>
  </g>
</svg>
