<svg xmlns="http://www.w3.org/2000/svg" width="65.068" height="59.033" viewBox="0 0 65.068 59.033">
  <g id="Family_Mediator" data-name="Family Mediator" transform="translate(-235.756 -318.471)">
    <path id="Path_1623" data-name="Path 1623" d="M276.809,354.409c0,2.19-.018,4.38.009,6.569.011.935-.022,1.719-1.3,1.646-.942-.054-.924.672-.925,1.333,0,1.855-.026,3.711,0,5.566.009.8-.084,1.385-1.106,1.409s-1.379-.4-1.345-1.4c.057-1.711-.06-3.43.048-5.136.091-1.442-.484-1.822-1.851-1.814-1.391.009-2.16.292-2.055,1.89.108,1.634.027,3.281.042,4.922.008.847-.039,1.569-1.214,1.533-1.084-.033-1.036-.734-1.037-1.469,0-1.5-.015-3-.015-4.5,0-1.192.293-2.486-1.671-2.448-.908.018-.67-.942-.678-1.53a36.017,36.017,0,0,0-.459-6.623c-.377.56-.741,1.13-1.134,1.678-.427.6-.6,1.463-1.724,1.211-1.092-.244-1.428-.854-1.64-1.891-1.071-5.229-2.242-10.438-3.37-15.656-.73-3.377-2.384-4.786-5.946-5.038-3.932-.278-6.269,1.111-7.422,4.315-.26.724-.07,2.027-1.657,1.514-1.678-.542-.754-1.543-.494-2.354.842-2.628,1.746-3.634,4.61-5.281a6.82,6.82,0,0,1-1.893-6.174,5.678,5.678,0,0,1,2.151-3.353,6.385,6.385,0,0,1,8.246.336c2.537,2.345,2.525,5.39-.106,9.289,3.288,1.339,4.457,4.1,5.076,7.343.808,4.234,1.8,8.432,2.725,12.669a1.8,1.8,0,0,0,1.389-1.412c.906-2.381,2.59-2.971,5-2.746a46.293,46.293,0,0,0,7.271.01c1.76-.114,3.039.25,3.719,2a1.175,1.175,0,0,0,1.188.878v-3.352q0-5.245,0-10.489c-.012-6.143.207-6.46,5.9-8.431-2.14-4.537-1.848-7.438.962-9.549a6.537,6.537,0,0,1,8.457.3c2.521,2.312,2.7,5.4.461,9.22.326.119.627.245.937.339,4.434,1.353,6.071,4.162,5.209,8.78-.147.784-.525.894-1.152.882-.655-.012-1.329.051-1.308-.932.02-.927-.056-1.858,0-2.782.12-2.079-.915-3.124-2.87-3.584a24.47,24.47,0,0,0-11.433-.006,3.42,3.42,0,0,0-2.922,3.82q.059,9.419-.016,18.838c-.006.865.484,1.912-1.078,2.338-1.544.421-1.6-.754-2.159-1.441-.349-.43-.633-.913-.946-1.372Zm-10.752,1.343v1.92c0,2.717,0,2.717,2.759,2.711h.64c5.058,0,5.058,0,5.088-5.119.024-4.072.024-4.072-3.974-4.068C266.051,351.2,266.051,351.2,266.057,355.752Zm24.07-26.865a4.14,4.14,0,0,0,4.216-3.931,4.2,4.2,0,0,0-4.282-4.11,3.983,3.983,0,0,0-4.035,4.066A3.928,3.928,0,0,0,290.127,328.887Zm-41.554-4.538a3.885,3.885,0,0,0-3.853,3.768,3.934,3.934,0,0,0,4.095,3.748,3.657,3.657,0,0,0,3.658-3.871A3.711,3.711,0,0,0,248.573,324.349Z" transform="translate(-2.068)" fill="navy"/>
    <path id="Path_1624" data-name="Path 1624" d="M337.2,386.909a6.932,6.932,0,0,0,.268-2.91c.126-2.9,1.366-4.695,4.131-5.5a2.108,2.108,0,0,0,1.424-1.385,4.957,4.957,0,0,1,3.3-2.827c2.89-.766,3.631-.177,3.612,2.779-.015,2.353-.234,4.722-.03,7.054a15.419,15.419,0,0,1-3.015,10.581c-2.277,3.264-4.2,6.777-6.241,10.2-.435.73-1.315,1.368-.053,2.417.638.531.6,1.922-1.08,1.912-5.49-.032-10.981-.022-16.472,0-.831,0-1.327-.122-1.311-1.145.015-.956.417-1.3,1.284-1.211,1.187.124,1.4-.5,1.409-1.531a52.755,52.755,0,0,0,.233-5.329c-.285-3.024.977-5.106,3.194-6.979a79.383,79.383,0,0,0,5.815-5.673C334.748,386.244,335.69,385.067,337.2,386.909Zm10.292-3.735c0-1.569.048-3.14-.024-4.7-.029-.625.507-1.622-.484-1.81-.827-.156-1.338.659-1.766,1.337a4.036,4.036,0,0,0-.471,2.267c0,2,0,3.993.008,5.989a2.478,2.478,0,0,1-.616,1.963c-3.546,3.511-7.1,7.02-10.6,10.574-.736.746-1.143.373-1.757-.111-.924-.728-.332-1.166.187-1.675,1.324-1.3,2.626-2.617,3.971-3.893a2.49,2.49,0,0,0,.447-3.288c-.345-.657-.783-1.052-1.477-.366-2.433,2.4-4.876,4.8-7.289,7.225a1.578,1.578,0,0,0-.381.95c-.16,2.631-.264,5.266-.425,7.9-.063,1.024.356,1.383,1.362,1.364,2.281-.043,4.566-.07,6.844.019a2.534,2.534,0,0,0,2.561-1.453c2.234-3.808,4.4-7.671,6.883-11.315C346.763,390.772,348.234,387.318,347.491,383.174Zm-7.763,5.351a.689.689,0,0,0,.869-.054c2.486-1.6,1.595-4.114,1.712-6.343.022-.424.3-1.1-.412-1.226-.516-.094-.906.336-1.216.727a4.008,4.008,0,0,0-.952,2.527C339.725,385.637,339.728,387.117,339.728,388.526Z" transform="translate(-49.146 -31.731)" fill="navy"/>
    <path id="Path_1625" data-name="Path 1625" d="M248.581,387.005c1.509-1.768,2.434-.5,3.508.586,2.5,2.542,5.06,5.035,7.631,7.51a3.538,3.538,0,0,1,1.237,2.6c.072,2.566.294,5.128.356,7.694.026,1.076.145,1.839,1.481,1.688.95-.107,1.183.407,1.2,1.288.026,1.112-.649,1.059-1.392,1.059-5.425,0-10.85.012-16.275-.013-1.361-.007-2.081-1.187-1.14-1.989,1.039-.885.471-1.364.06-2.043q-4.208-6.954-8.431-13.9a5.267,5.267,0,0,1-.916-2.793c-.017-4.211-.03-8.423-.144-12.632-.035-1.3.337-1.691,1.666-1.722a5.237,5.237,0,0,1,5.359,3.111,1.941,1.941,0,0,0,1.091,1.191c3.536,1.364,4.338,2.6,4.4,6.371A2.9,2.9,0,0,0,248.581,387.005Zm-10.347-3.633c.409,2.16-.67,4.746.721,7.065,3.082,5.136,6.2,10.248,9.3,15.377a2.117,2.117,0,0,0,2,1.293c2.426-.064,4.854-.018,7.281-.027.639,0,1.4.068,1.354-.9-.2-4.359.954-9.074-3.617-12.211a35.963,35.963,0,0,1-3.851-3.706c-.434-.407-.771-1.257-1.51-.927-.77.343-.925,1.187-.987,2a2.46,2.46,0,0,0,.936,2.051c1.292,1.232,2.541,2.507,3.827,3.743.558.536.947.932.173,1.7s-1.206.635-1.889-.063a58.956,58.956,0,0,0-5.828-5.671c-4.125-3.187-6.131-7.091-5.17-12.335a4.682,4.682,0,0,0-.034-1.281,3.333,3.333,0,0,0-1.18-2.207,1.19,1.19,0,0,0-1.152-.407c-.556.179-.362.706-.367,1.093C238.222,379.673,238.234,381.386,238.234,383.373Zm7.759,5.851c0-1.975.055-3.582-.019-5.182a3.467,3.467,0,0,0-1.46-2.706c-.369-.267-.833-.563-1.1.27A7.607,7.607,0,0,0,245.993,389.223Z" transform="translate(0 -31.932)" fill="navy"/>
    <path id="Path_1626" data-name="Path 1626" d="M304.139,372.176a5.018,5.018,0,0,1-5.193-4.863,4.961,4.961,0,0,1,5.04-4.993,4.93,4.93,0,1,1,.153,9.856Zm-2.765-4.894a2.7,2.7,0,0,0,2.8,2.618,2.6,2.6,0,0,0,2.577-2.625,2.687,2.687,0,1,0-5.373.006Z" transform="translate(-36.119 -25.064)" fill="navy"/>
  </g>
</svg>
