<svg id="Forensic_Services" xmlns="http://www.w3.org/2000/svg" width="38.389" height="38.378" viewBox="0 0 38.389 38.378">
  <path id="Path_30" data-name="Path 30" d="M3081.711,480.086a13.846,13.846,0,0,1,2.721,27.453,13.406,13.406,0,0,1-8.587-1.147.811.811,0,0,0-1.127.209q-5.249,5.289-10.532,10.544a3.909,3.909,0,1,1-5.691-5.358c1.526-1.58,3.1-3.114,4.652-4.667,2.029-2.03,4.053-4.067,6.1-6.082a.727.727,0,0,0,.2-1,13.835,13.835,0,0,1,10.066-19.746A9.13,9.13,0,0,1,3081.711,480.086Zm.16,2.255a11.6,11.6,0,1,0,11.588,11.642A11.637,11.637,0,0,0,3081.871,482.341ZM3061.288,516.2a1.8,1.8,0,0,0,1.195-.54q5.243-5.244,10.494-10.48c.305-.3.24-.425-.046-.678a15.205,15.205,0,0,1-1.586-1.584c-.308-.366-.452-.365-.784-.03q-5.144,5.183-10.318,10.337a2.488,2.488,0,0,0-.381.457,1.546,1.546,0,0,0,0,1.7A1.671,1.671,0,0,0,3061.288,516.2Z" transform="translate(-3057.345 -480.073)" fill="#3267ff"/>
  <path id="Path_31" data-name="Path 31" d="M3192.026,525.184c-2.488-1.052-2.833-3.06-2.665-5.321.044-.6-.015-1.2.015-1.8a1.11,1.11,0,0,1,1.105-1.171,1.042,1.042,0,0,1,1.126,1.119c.011.474.161.58.606.57,1.222-.03,2.444-.022,3.666,0,.4.006.628-.025.626-.542a1.04,1.04,0,0,1,1.1-1.144,1.1,1.1,0,0,1,1.129,1.143c.027,1.221.049,2.446-.015,3.665a3.363,3.363,0,0,1-1.495,2.639c-.4.288-.811.572-1.275.9l1.195.832a3.564,3.564,0,0,1,1.6,3.047q.015,1.534,0,3.068c-.007.883-.411,1.379-1.113,1.394-.683.015-1.07-.385-1.129-1.269-.023-.344-.144-.411-.446-.409-1.322.011-2.644.015-3.966,0-.358,0-.45.11-.473.464-.053.833-.439,1.22-1.112,1.216s-1.119-.478-1.131-1.3c-.017-1.122-.021-2.245,0-3.367a3.51,3.51,0,0,1,1.641-3.02C3191.3,525.708,3191.582,525.5,3192.026,525.184Zm1.976,4.478c.672,0,1.345-.024,2.015.009.424.021.484-.165.479-.527a1.7,1.7,0,0,0-.931-1.422c-1.682-1.152-1.67-1.155-3.294.037a1.561,1.561,0,0,0-.652,1.269c-.026.451.057.691.593.646C3192.8,529.624,3193.4,529.663,3194,529.663Zm.075-8.834h-1.567c-.93,0-1.083.223-.812,1.142a1.5,1.5,0,0,0,.64.79c1.575,1.134,1.574,1.136,3.16.037.123-.085.243-.173.368-.255a1.434,1.434,0,0,0,.627-1.2c.023-.368-.058-.542-.477-.52C3195.371,520.854,3194.723,520.829,3194.076,520.829Z" transform="translate(-3169.539 -511.376)" fill="#3267ff"/>
</svg>
