<svg xmlns="http://www.w3.org/2000/svg" width="425.194" height="46.66" viewBox="0 0 425.194 46.66">
  <g id="H_Logo" transform="translate(-33.8 -18.1)">
    <g id="Group_1742" data-name="Group 1742" transform="translate(139.259 18.1)">
      <path id="Path_1545" data-name="Path 1545" d="M156.3,33.782h4.907c0,2.152,1.808,3.185,3.788,3.185,1.808,0,3.616-.947,3.616-2.669s-2.066-2.238-4.477-2.755c-3.357-.861-7.49-1.808-7.49-6.629,0-4.3,3.185-6.715,8.178-6.715,5.165,0,8.092,2.755,8.092,7.231h-4.821c0-1.894-1.636-2.841-3.444-2.841-1.55,0-3.185.689-3.185,2.152,0,1.55,1.98,2.066,4.3,2.669,3.444.861,7.748,1.894,7.748,6.973,0,4.821-3.874,7.231-8.523,7.231C159.916,41.53,156.3,38.6,156.3,33.782Z" transform="translate(-156.3 -18.114)" fill="#282a73"/>
      <path id="Path_1546" data-name="Path 1546" d="M198.351,18.7V41.169h-4.907v-9.3h-8.437v9.3H180.1V18.7h4.907v8.7h8.437V18.7Z" transform="translate(-159.611 -18.183)" fill="#282a73"/>
      <path id="Path_1547" data-name="Path 1547" d="M220.36,36.607v4.563H206.5V18.7h13.516v4.477h-8.609v4.477h7.834v4.391h-7.834v4.649h8.953Z" transform="translate(-163.283 -18.183)" fill="#282a73"/>
      <path id="Path_1548" data-name="Path 1548" d="M226.6,18.7h4.907V41.169H226.6Z" transform="translate(-166.079 -18.183)" fill="#282a73"/>
      <path id="Path_1549" data-name="Path 1549" d="M251.016,36.693v4.477H237.5V18.7h4.907V36.693Z" transform="translate(-167.596 -18.183)" fill="#282a73"/>
      <path id="Path_1550" data-name="Path 1550" d="M269.168,36.865h-8.953l-1.55,4.3H253.5L262.281,18.7h4.563l9.125,22.469h-5.251Zm-7.4-4.218h5.94l-2.927-8.006Z" transform="translate(-169.821 -18.183)" fill="#282a73"/>
      <path id="Path_1551" data-name="Path 1551" d="M299.522,41.6A11.435,11.435,0,0,1,287.9,29.894,11.455,11.455,0,0,1,299.522,18.1a10.772,10.772,0,0,1,10.847,8.953h-4.907a6.2,6.2,0,0,0-6.026-4.3,6.828,6.828,0,0,0-6.715,7.145,6.7,6.7,0,0,0,6.715,7.059,6.086,6.086,0,0,0,6.026-4.649h4.907a10.853,10.853,0,0,1-10.847,9.3Z" transform="translate(-174.607 -18.1)" fill="#282a73"/>
      <path id="Path_1552" data-name="Path 1552" d="M315.9,29.808a11.969,11.969,0,0,1,23.933,0c0,6.715-5.079,11.708-11.966,11.708A11.468,11.468,0,0,1,315.9,29.808Zm19.026,0a7.06,7.06,0,1,0-14.119,0,7,7,0,0,0,7.059,7.145A6.9,6.9,0,0,0,334.926,29.808Z" transform="translate(-178.502 -18.1)" fill="#282a73"/>
      <path id="Path_1553" data-name="Path 1553" d="M365.551,18.7V41.169H360.73v-9.3h-8.523v9.3H347.3V18.7h4.907v8.7h8.437V18.7Z" transform="translate(-182.87 -18.183)" fill="#282a73"/>
      <path id="Path_1554" data-name="Path 1554" d="M387.56,36.607v4.563H373.7V18.7h13.516v4.477h-8.609v4.477h7.834v4.391h-7.834v4.649h8.953Z" transform="translate(-186.542 -18.183)" fill="#282a73"/>
      <path id="Path_1555" data-name="Path 1555" d="M412.84,18.7V41.169h-4.046L398.635,27.137V41.169H393.9V18.7h4.391l9.9,13.688V18.7Z" transform="translate(-189.352 -18.183)" fill="#282a73"/>
      <path id="Path_1556" data-name="Path 1556" d="M434.207,23.177v4.907h7.748v4.391h-7.748v8.609H429.3V18.7h13.43v4.477h-8.523Z" transform="translate(-194.277 -18.183)" fill="#282a73"/>
      <path id="Path_1557" data-name="Path 1557" d="M448.3,32.733V18.7h4.907V32.474a4.2,4.2,0,0,0,4.391,4.563,4.25,4.25,0,0,0,4.391-4.563V18.7H466.9V32.733c0,5.251-3.96,8.953-9.3,8.953S448.3,37.984,448.3,32.733Z" transform="translate(-196.92 -18.183)" fill="#282a73"/>
      <path id="Path_1558" data-name="Path 1558" d="M482.806,33.507h-3.1v7.662H474.8V18.7h9.039c4.477,0,7.834,3.1,7.834,7.4a7.155,7.155,0,0,1-4.132,6.543l4.993,8.523h-5.424Zm-3.185-4.477h3.874c2.066,0,3.271-1.205,3.271-2.927s-1.205-2.927-3.271-2.927h-3.874Z" transform="translate(-200.606 -18.183)" fill="#282a73"/>
      <path id="Path_1559" data-name="Path 1559" d="M506.706,33.507h-3.1v7.662H498.7V18.7h9.039c4.477,0,7.834,3.1,7.834,7.4a7.155,7.155,0,0,1-4.132,6.543l4.993,8.523h-5.424Zm-3.185-4.477H507.4c2.066,0,3.271-1.205,3.271-2.927s-1.205-2.927-3.271-2.927h-3.874Z" transform="translate(-203.931 -18.183)" fill="#282a73"/>
      <path id="Path_1560" data-name="Path 1560" d="M522.058,46.748a2.622,2.622,0,0,0,2.41-2.755H521.8V39h5.079v4.649a5.024,5.024,0,0,1-4.821,5.424V46.748Z" transform="translate(-207.144 -21.007)" fill="#282a73"/>
    </g>
    <g id="Group_1744" data-name="Group 1744" transform="translate(139.776 48.748)">
      <g id="Group_1743" data-name="Group 1743">
        <path id="Path_1561" data-name="Path 1561" d="M156.9,66.872V53.7h5.424a6.5,6.5,0,0,1,3.013.6,3.95,3.95,0,0,1,1.894,1.636,4.869,4.869,0,0,1,0,4.993,5.039,5.039,0,0,1-1.894,1.636,7.81,7.81,0,0,1-3.013.6h-4.046l1.119-1.119v4.821Zm2.411-4.649-1.119-1.205h3.96a3.659,3.659,0,0,0,2.411-.689,2.467,2.467,0,0,0,.861-1.894,2.38,2.38,0,0,0-.861-1.98,3.828,3.828,0,0,0-2.411-.689h-3.96l1.119-1.205Z" transform="translate(-156.9 -53.7)" fill="#6d6e71"/>
        <path id="Path_1562" data-name="Path 1562" d="M175.611,66.872H173.2V53.7h2.411Zm7.059-5.682h-7.231V59.124h7.231ZM182.5,53.7h2.41V66.872H182.5Z" transform="translate(-159.167 -53.7)" fill="#6d6e71"/>
        <path id="Path_1563" data-name="Path 1563" d="M191.95,68.7a1.813,1.813,0,0,1-1.119-.43,1.322,1.322,0,0,1-.43-1.119,1.487,1.487,0,0,1,.43-1.119,1.67,1.67,0,0,1,2.238,0,1.322,1.322,0,0,1,.43,1.119,1.637,1.637,0,0,1-.43,1.119A1.813,1.813,0,0,1,191.95,68.7Z" transform="translate(-161.56 -55.355)" fill="#6d6e71"/>
        <path id="Path_1564" data-name="Path 1564" d="M197.6,66.872V53.7h5.768a7.689,7.689,0,0,1,3.788.861,5.938,5.938,0,0,1,2.5,2.324,6.665,6.665,0,0,1,.947,3.444,6.441,6.441,0,0,1-.947,3.444,7.212,7.212,0,0,1-2.5,2.324,8.765,8.765,0,0,1-3.788.861H197.6Zm2.41-2.066H203.2a4.987,4.987,0,0,0,2.583-.6,4.065,4.065,0,0,0,1.636-1.55,4.979,4.979,0,0,0,.6-2.41,4.367,4.367,0,0,0-.6-2.41,4.037,4.037,0,0,0-1.636-1.55,5.717,5.717,0,0,0-2.583-.6h-3.185Z" transform="translate(-162.562 -53.7)" fill="#6d6e71"/>
        <path id="Path_1565" data-name="Path 1565" d="M216.25,68.7a1.813,1.813,0,0,1-1.119-.43,1.322,1.322,0,0,1-.43-1.119,1.487,1.487,0,0,1,.43-1.119,1.67,1.67,0,0,1,2.238,0,1.322,1.322,0,0,1,.43,1.119,1.637,1.637,0,0,1-.43,1.119A1.813,1.813,0,0,1,216.25,68.7Z" transform="translate(-164.941 -55.355)" fill="#6d6e71"/>
        <path id="Path_1566" data-name="Path 1566" d="M220.886,71.354l1.119-4.132.344,1.377a1.813,1.813,0,0,1-1.119-.43,1.67,1.67,0,0,1,0-2.238,1.637,1.637,0,0,1,1.119-.43,1.813,1.813,0,0,1,1.119.43,1.322,1.322,0,0,1,.43,1.119v.43c0,.172-.086.344-.086.517a5.933,5.933,0,0,0-.258.689l-.947,2.669h-1.722Z" transform="translate(-165.789 -55.341)" fill="#6d6e71"/>
        <path id="Path_1567" data-name="Path 1567" d="M232.4,66.872,238.34,53.7h2.411l5.94,13.172h-2.583l-5.079-11.88h.947l-4.993,11.88Zm2.755-3.013.689-1.894h7.145l.689,1.894Z" transform="translate(-167.403 -53.7)" fill="#6d6e71"/>
        <path id="Path_1568" data-name="Path 1568" d="M252.75,68.7a1.813,1.813,0,0,1-1.119-.43,1.322,1.322,0,0,1-.43-1.119,1.487,1.487,0,0,1,.43-1.119,1.67,1.67,0,0,1,2.238,0,1.322,1.322,0,0,1,.43,1.119,1.637,1.637,0,0,1-.43,1.119A1.813,1.813,0,0,1,252.75,68.7Z" transform="translate(-170.018 -55.355)" fill="#6d6e71"/>
        <path id="Path_1569" data-name="Path 1569" d="M258.4,66.872V53.7h6.2a6.228,6.228,0,0,1,3.616.947,2.842,2.842,0,0,1,1.205,2.5,3.183,3.183,0,0,1-.517,1.808,3.218,3.218,0,0,1-1.291,1.119,4,4,0,0,1-1.808.43l.344-.689a4.782,4.782,0,0,1,1.98.43,3.132,3.132,0,0,1,1.377,1.205,3.274,3.274,0,0,1,.517,1.894,3.225,3.225,0,0,1-1.291,2.669c-.861.689-2.066.861-3.788.861Zm2.411-1.894h3.96a4.744,4.744,0,0,0,2.152-.43,1.77,1.77,0,0,0,0-2.927,3.83,3.83,0,0,0-2.152-.43h-4.132V59.3h3.616a3.974,3.974,0,0,0,1.98-.43,1.722,1.722,0,0,0,0-2.755,3.228,3.228,0,0,0-1.98-.43h-3.444Z" transform="translate(-171.02 -53.7)" fill="#6d6e71"/>
        <path id="Path_1570" data-name="Path 1570" d="M276.05,68.7a1.813,1.813,0,0,1-1.119-.43,1.322,1.322,0,0,1-.43-1.119,1.487,1.487,0,0,1,.43-1.119,1.67,1.67,0,0,1,2.238,0A1.55,1.55,0,0,1,276.05,68.7Z" transform="translate(-173.259 -55.355)" fill="#6d6e71"/>
        <path id="Path_1571" data-name="Path 1571" d="M281.7,66.872V53.7h1.98l8.265,10.159h-1.033V53.7h2.411V66.872h-1.894l-8.265-10.159H284.2V66.872Z" transform="translate(-174.261 -53.7)" fill="#6d6e71"/>
        <path id="Path_1572" data-name="Path 1572" d="M300.45,68.7a1.813,1.813,0,0,1-1.119-.43,1.322,1.322,0,0,1-.43-1.119,1.487,1.487,0,0,1,.43-1.119,1.67,1.67,0,0,1,2.238,0A1.322,1.322,0,0,1,302,67.15a1.476,1.476,0,0,1-1.55,1.55Z" transform="translate(-176.653 -55.355)" fill="#6d6e71"/>
      </g>
    </g>
    <g id="Group_1745" data-name="Group 1745" transform="translate(33.8 18.952)">
      <path id="Path_1573" data-name="Path 1573" d="M62.733,19.692l.8,8.183-.8.146c-1.827-3.872-4.019-6.21-6.649-7.087a8.759,8.759,0,0,0-2.265-.292c-2.265,0-3.8,1.388-4.53,4.092a1.609,1.609,0,0,0-.073.585c0,1.023,1.023,2.776,3.069,5.114a63.81,63.81,0,0,1,4.092,5.188,12.182,12.182,0,0,1,2.411,6.649,11.5,11.5,0,0,1-3,7.233,13.763,13.763,0,0,1-6.5,4.457,14.26,14.26,0,0,1-4.092.511,15.638,15.638,0,0,1-6.649-1.388,8.718,8.718,0,0,1-4.53-5.48,7.8,7.8,0,0,1-.219-1.827,5.435,5.435,0,0,1,1.973-4.238,6.148,6.148,0,0,1,4.238-1.607,4.746,4.746,0,0,1,4.53,2.776l-3.8,2.923a2.015,2.015,0,0,0-1.973-1.461,3.6,3.6,0,0,0-1.68.438A2.561,2.561,0,0,0,35.7,47.091a4.639,4.639,0,0,0,.731,2.484,5.7,5.7,0,0,0,1.827,1.9A13.246,13.246,0,0,0,45.344,53.3a10.55,10.55,0,0,0,7.087-2.411,7.505,7.505,0,0,0,2.85-5.991,10.022,10.022,0,0,0-.658-3.58,4.711,4.711,0,0,0-1.169-1.9c-.219-.365-1.9-2.192-4.9-5.626a7.673,7.673,0,0,1-2.192-5.261,10.4,10.4,0,0,1,2.776-6.722,8.43,8.43,0,0,1,9.206-1.754,8.933,8.933,0,0,0,2.338.658,1.3,1.3,0,0,0,1.242-1.1Z" transform="translate(-33.8 -19.132)" fill="#282a73"/>
      <path id="Path_1574" data-name="Path 1574" d="M87.047,20.563h26.227c1.576.113,2.364-.225,2.364-1.238l.9-.225,2.589,10.356-1.013,1.013c-2.139-5.516-6.641-8.33-13.395-8.442a7.941,7.941,0,0,0-5.741,2.251,44.753,44.753,0,0,0-2.814,5.29c-.675,1.351-2.589,5.29-5.628,11.932q7.091-6.754,13.17-6.754a6.416,6.416,0,0,1,3.489.788l-4.615,6.754a6.179,6.179,0,0,0-4.5-2.026q-4.559,0-9.455,6.078c-2.026,3.152-3.377,5.4-4.165,6.979a3.859,3.859,0,0,0-.45,1.8c0,2.026,1.8,3.039,5.29,2.927v1.8H70.5V58.159a7.731,7.731,0,0,0,6.529-2.251c.338-.563,1.688-3.377,4.165-8.667.563-1.126,4.052-8.555,10.243-22.4a2.1,2.1,0,0,0,.45-1.238q0-1.52-3.039-1.688H86.822V20.563Z" transform="translate(-50.342 -19.091)" fill="#282a73"/>
      <path id="Path_1575" data-name="Path 1575" d="M121.844,44.7l-5.157,4.349a11.863,11.863,0,0,1-8.264-2.548C106.808,45.006,106,42.583,106,39.165a18.377,18.377,0,0,1,2.05-8.575,28.81,28.81,0,0,1,5.406-7.456c2.61-2.61,5.157-3.914,7.767-4.039a9.9,9.9,0,0,1,4.163,1.056,2.493,2.493,0,0,0,.932.186c.683,0,.994-.373,1.056-1.056h.683l.87,7.643-1.056.124c-.87-2.982-2.175-5.033-3.852-6.089a4.591,4.591,0,0,0-2.423-.746c-1.864,0-3.914,1.491-6.213,4.412a20.717,20.717,0,0,0-3.728,6.338,28.677,28.677,0,0,0-1.491,7.643c0,2.672.808,4.66,2.361,5.965a7.159,7.159,0,0,0,4.412,1.616,6.3,6.3,0,0,0,4.287-1.8Z" transform="translate(-46.844 -7.536)" fill="#282a73"/>
    </g>
  </g>
</svg>
