<svg xmlns="http://www.w3.org/2000/svg" width="26" height="18.278" viewBox="0 0 26 18.278">
  <g id="H_Email" transform="translate(-1302.879 -186.057)">
    <path id="Path_5" data-name="Path 5" d="M1315.881,204.335q-5.2,0-10.408,0a2.324,2.324,0,0,1-2.593-2.6q0-6.548,0-13.1a2.316,2.316,0,0,1,2.564-2.578q10.434,0,20.867,0a2.315,2.315,0,0,1,2.567,2.575q0,6.574,0,13.147a2.309,2.309,0,0,1-2.538,2.554Q1321.111,204.338,1315.881,204.335Zm-10.323-16.729c.109.118.17.189.236.256q4.674,4.691,9.351,9.38a.913.913,0,0,0,1.486-.019q4.678-4.688,9.35-9.382c.059-.06.191-.1.128-.235Zm20.562,15.187.094-.117q-3.153-3.112-6.3-6.229c-.182-.181-.27-.095-.4.039-.593.6-1.192,1.2-1.79,1.8a2.408,2.408,0,0,1-3.663.018c-.575-.573-1.161-1.135-1.713-1.729-.242-.261-.374-.255-.624,0-1.97,2-3.956,3.982-5.934,5.973-.061.061-.184.1-.141.25Zm-21.7-1.107c2.123-2.108,4.206-4.186,6.306-6.246.278-.272.094-.383-.072-.55q-2.922-2.928-5.84-5.859a3.119,3.119,0,0,1-.285-.389l-.109.1Zm22.925-12.954c-.138-.017-.194.1-.266.172-2.009,2.01-4.01,4.027-6.028,6.027-.246.244-.172.353.028.552q3.021,3.007,6.028,6.028c.061.06.1.186.239.129Z" transform="translate(0 0)" fill="#190085"/>
  </g>
</svg>
