<svg xmlns="http://www.w3.org/2000/svg" width="29.978" height="39.629" viewBox="0 0 29.978 39.629">
  <g id="Licensed" transform="translate(-224.11 -283.34)">
    <path id="Path_1809" data-name="Path 1809" d="M252.785,307.228a2.366,2.366,0,0,0-1.831.549c-.589.428-1.162.881-1.769,1.282a3.573,3.573,0,0,1-4.174.087c-.515-.328-1-.7-1.487-1.073a3.314,3.314,0,0,0-2.487-.863,4.307,4.307,0,0,1-4.591-4.406,3.534,3.534,0,0,0-1.281-2.966c-1.671-1.444-1.849-2.857-.855-4.848a3.619,3.619,0,0,1,.437-.754,8.05,8.05,0,0,0,1.827-4.61,3.487,3.487,0,0,1,3.867-3.446,5.221,5.221,0,0,0,3.686-1.487c2-1.793,3.734-1.8,5.737-.025a5.359,5.359,0,0,0,3.675,1.516c2.541.034,3.861,1.408,4.032,4.095a5.905,5.905,0,0,0,1.222,3.293,9.158,9.158,0,0,1,1.087,1.785,3.366,3.366,0,0,1-.812,4.289,4.1,4.1,0,0,0-1.5,3.332A4.313,4.313,0,0,1,252.785,307.228Zm-5.466-3.505a7.178,7.178,0,0,0,6.91-7.591,7.256,7.256,0,0,0-7.462-6.812,7.207,7.207,0,1,0,.552,14.4Z" transform="translate(-7.91)" fill="#fcfcfd"/>
    <path id="Path_1810" data-name="Path 1810" d="M225.553,440.4a1.246,1.246,0,0,1-1.387-1.679,3.837,3.837,0,0,1,.331-.9c1.329-2.582,2.678-5.154,4-7.74.325-.637.6-.78,1.124-.166a5.264,5.264,0,0,0,4.171,1.642,1.653,1.653,0,0,1,1.24.487,5.927,5.927,0,0,0,1.827,1.331c.681.283.692.635.38,1.209q-1.4,2.562-2.741,5.154c-.44.85-.811,1.736-1.239,2.593-.293.588-.684,1.14-1.41,1.154-.7.014-1.052-.526-1.352-1.081-.249-.46-.512-.912-.768-1.369-.7-1.259-.707-1.272-2.114-.994A13.956,13.956,0,0,1,225.553,440.4Z" transform="translate(0 -120.575)" fill="#fcfcfd"/>
    <path id="Path_1811" data-name="Path 1811" d="M332.47,439.112a1.169,1.169,0,0,1-1.455,1.309c-.979-.119-1.953-.3-2.918-.511a.593.593,0,0,0-.768.349q-.612,1.156-1.275,2.285c-.753,1.286-1.885,1.391-2.53.088-1.379-2.788-2.85-5.525-4.275-8.288-.2-.388-.116-.672.317-.818a.251.251,0,0,0,.08-.033,8.68,8.68,0,0,1,5.195-2.228,3.238,3.238,0,0,0,2.185-1.342c.411-.487.7-.551,1.023.074,1.353,2.637,2.724,5.265,4.079,7.9A2.253,2.253,0,0,1,332.47,439.112Z" transform="translate(-78.387 -120.59)" fill="#fcfcfd"/>
  </g>
</svg>
