<svg xmlns="http://www.w3.org/2000/svg" width="69.253" height="69.277" viewBox="0 0 69.253 69.277">
  <g id="Neutral_Facilitator_Blue" data-name="Neutral Facilitator_Blue" transform="translate(-72.221 -151.07)">
    <path id="Path_1618" data-name="Path 1618" d="M98.372,182.322a16.769,16.769,0,1,1,14.676,1.093c.054.26.308.255.478.332,2.177.982,4.362,1.948,6.542,2.922a2.069,2.069,0,0,0,.874.179q3.733-.013,7.466,0c.386,0,.687.019.823-.492a.951.951,0,0,1,.994-.626c3.373,0,6.745-.011,10.118,0,.766,0,1.126.462,1.127,1.359q.006,6.349,0,12.7c0,1.558.006,3.116,0,4.675,0,.965-.394,1.358-1.347,1.358-3.21,0-6.419-.007-9.629,0-.645,0-1.147-.168-1.345-.842a.323.323,0,0,0-.337-.279c-.738-.016-1.406-.071-1.907.744a37.265,37.265,0,0,1-2.327,3.132,1.08,1.08,0,0,1-1.677.343c-.354-.227-.479-.076-.658.165q-1.017,1.372-2.045,2.736c-.593.788-.971.9-1.821.4-.366-.213-.446.021-.59.211-.688.907-1.368,1.821-2.056,2.728-.6.794-.983.906-1.819.419-.358-.208-.449.005-.6.2-.7.928-1.387,1.865-2.091,2.789a1.165,1.165,0,0,1-1.9.282c-.752-.546-1.508-1.088-2.239-1.661-.332-.26-.526-.246-.776.107-.577.815-1.19,1.606-1.793,2.4a1.15,1.15,0,0,1-1.846.3q-7.662-5.462-15.313-10.939a1.137,1.137,0,0,1-.284-1.843c.608-.822,1.243-1.624,1.837-2.456.143-.2.522-.395.317-.677a1.127,1.127,0,0,0-.938-.509c-1.046.015-2.093.005-3.14,0-.419,0-.838.012-1.256-.007-.307-.014-.5.041-.6.39a1.053,1.053,0,0,1-1.138.732c-2.907,0-5.815.006-8.722-.005a1.1,1.1,0,0,1-1.2-1.222q-.01-8.827,0-17.653a1.1,1.1,0,0,1,1.216-1.209c2.907-.01,5.815,0,8.722,0a1.043,1.043,0,0,1,1.131.741c.1.363.313.38.61.38,4.117-.006,8.234-.012,12.35,0,.441,0,.572-.135.538-.555-.032-.393-.005-.79-.005-1.186C96.787,182.735,97.027,182.467,98.372,182.322Zm-8.293,5.634v0c-2.047,0-4.094.009-6.141-.008-.4,0-.567.073-.565.529q.027,6.176,0,12.352c0,.449.15.54.56.534,1.535-.02,3.071.011,4.606-.016a2.185,2.185,0,0,1,1.417.452q4.731,3.51,9.48,7c3.312,2.439,6.632,4.867,9.93,7.325.444.331.7.394,1.022-.122a16.093,16.093,0,0,1,1.164-1.565c.254-.314.254-.49-.1-.76-2.18-1.664-4.341-3.354-6.5-5.043-1.041-.814-1.035-.821-.23-1.861.561-.724.559-.722,1.281-.16,2.66,2.069,5.328,4.128,7.974,6.214.366.289.551.278.808-.1.393-.575.815-1.132,1.254-1.673.248-.305.205-.469-.106-.708q-3.289-2.528-6.549-5.093c-1.021-.8-1.014-.809-.2-1.832.567-.71.568-.712,1.282-.157,2.661,2.067,5.328,4.128,7.976,6.213.363.285.555.279.813-.1.394-.574.819-1.128,1.253-1.674.23-.289.248-.444-.09-.7-2.215-1.695-4.406-3.42-6.6-5.137-.958-.749-.958-.75-.211-1.728.612-.8.612-.8,1.383-.19.018.014.035.031.053.045,2.625,2.039,5.256,4.071,7.869,6.126.355.279.554.291.814-.094a15.129,15.129,0,0,1,1.213-1.615c.4-.454.306-.666-.168-1q-8.39-5.882-16.746-11.812a1.561,1.561,0,0,0-.964-.3q-4.466.016-8.933,0c-.92,0-1.323-.4-1.336-1.305a12.844,12.844,0,0,1,.006-1.395c.049-.515-.11-.671-.644-.662C94.127,187.976,92.1,187.956,90.079,187.956Zm27.931-10.948a14.481,14.481,0,0,0-21.973-18.857c-5.493,6.141-4.274,14.678-.327,18.856a3.557,3.557,0,0,0,.077-.351,10.792,10.792,0,0,1,4.514-7.77c.523-.386.477-.567.144-1.038a7.788,7.788,0,0,1,5.637-12.238,7.808,7.808,0,0,1,7.087,12.318c-.266.39-.361.556.11.894a10.924,10.924,0,0,1,4.489,6.968A3.5,3.5,0,0,0,118.01,177.008ZM129.088,195.8c0-2.023-.013-4.046.009-6.069.005-.5-.112-.679-.656-.673-2.6.031-5.209.009-7.813.019a2.838,2.838,0,0,1-1.207-.261q-4.507-2.018-9.026-4.007a1.755,1.755,0,0,0-.727-.207q-5.092.008-10.185-.006c-.364,0-.482.1-.475.473.022,1.092.041,2.187,0,3.278-.023.564.111.748.712.74,2.6-.035,5.209,0,7.813-.022a2.291,2.291,0,0,1,1.419.447q8.7,6.163,17.406,12.317a3.106,3.106,0,0,0,2.114.665c.471-.032.637-.13.63-.625C129.073,199.849,129.089,197.826,129.088,195.8Zm-22.216-13.418a14.552,14.552,0,0,0,8.469-2.786c.2-.145.416-.263.431-.58a9.164,9.164,0,0,0-4.3-8.726.877.877,0,0,0-1.011,0,7.465,7.465,0,0,1-7.147.042,1.115,1.115,0,0,0-1.316.082,9.167,9.167,0,0,0-4.1,8.556c.015.348.235.48.456.639A14.608,14.608,0,0,0,106.872,182.385Zm32.365,13.437c0-2.418-.006-4.837.006-7.255,0-.4-.036-.627-.548-.621-2.278.028-4.557.023-6.836,0-.449,0-.539.155-.538.563q.016,7.219,0,14.438c0,.52.14.664.664.657q3.313-.045,6.627,0c.548.009.646-.171.641-.671C139.223,200.565,139.237,198.193,139.237,195.821Zm-58.085-1.164c0-2.394-.017-4.788.014-7.181.007-.535-.151-.655-.662-.647-1.835.031-3.672.024-5.508,0-.419,0-.554.1-.553.54q.024,7.286,0,14.572c0,.441.136.544.554.539,1.836-.021,3.672-.028,5.508,0,.512.009.668-.114.661-.647C81.135,199.446,81.152,197.052,81.152,194.658Zm25.69-36.847a5.584,5.584,0,1,0,5.573,5.588A5.6,5.6,0,0,0,106.843,157.811Zm-9.794,52.122c-.1-.3-.388-.406-.6-.557-.49-.342-.946-1.031-1.469-.948s-.762.864-1.128,1.336c-.6.769-.6.789.211,1.345.456.314.917.961,1.365.85.425-.105.7-.8,1.044-1.241C96.666,210.461,96.854,210.2,97.049,209.933Zm7.768,5.627c-.217-.171-.406-.33-.606-.474-.486-.351-1-.992-1.462-.964-.541.033-.755.9-1.188,1.337-.462.465-.478.8.156,1.131.526.279,1.015.957,1.485.925.54-.037.775-.878,1.172-1.346C104.522,216,104.643,215.8,104.817,215.56Zm-13.395-6.333c.107-.134.209-.254.3-.381.334-.446.638-.919,1.007-1.333s.388-.7-.145-1c-.482-.269-.935-.9-1.364-.871-.5.037-.743.8-1.1,1.251-.718.915-.7.925.266,1.608C90.716,208.725,91.036,208.953,91.423,209.227Zm9.4,3.492c-.092-.331-.417-.42-.644-.59-1.276-.954-1.281-.946-2.22.312-.709.951-.709.951.283,1.654,1.015.719,1.016.72,1.787-.3C100.295,213.441,100.553,213.083,100.823,212.718Z" transform="translate(0 0)" fill="navy"/>
  </g>
</svg>
