<svg xmlns="http://www.w3.org/2000/svg" width="199.806" height="123.885" viewBox="0 0 199.806 123.885">
  <g id="PSYPACT_Logo" transform="translate(961.894 -504.414)">
    <path id="Path_1587" data-name="Path 1587" d="M-676.367,704.659c-.049.79.514.728,1.005.684a29.758,29.758,0,0,0,7.592-1.423,3.425,3.425,0,0,1,1.536-.385c-.369,3.6-.965,7.172-1.6,10.734-2.608.233-5.214.483-7.824.687-.562.044-.708.284-.7.789.017,1.3,0,2.593,0,3.89,0,9.915-.018,19.83.024,29.745a14.476,14.476,0,0,0,1.17,5.751c1.238,2.839,3.678,3.877,6.533,4.272a44.568,44.568,0,0,0,6.843.21c.813-.013,1.052.262,1.033,1.051-.047,1.944-.017,3.89-.017,5.834h-49.5c0-1.945.023-3.891-.028-5.835-.02-.792.229-1.051,1.036-1.051a50.185,50.185,0,0,0,6.5-.189c4.177-.542,6.494-2.5,7.411-6.554a31.327,31.327,0,0,0,.433-6.929c.011-4.272-.009-8.544-.016-12.816,1.1-.011,2.209-.027,3.313-.031,1.669-.007,2.26-.583,2.26-2.231q0-10.736,0-21.473c0-1.724-.168-1.577,1.537-1.5C-683.629,708.094-679.7,707.46-676.367,704.659Z" transform="translate(-176.525 -138.199)" fill="#fff" opacity="0.75"/>
    <path id="Path_1588" data-name="Path 1588" d="M-518.355,536.054a3.5,3.5,0,0,0,.427-1.962c.407-5.3.938-10.6,3-15.57a21.133,21.133,0,0,1,6.864-8.675,25.016,25.016,0,0,1,12.762-4.734,19.346,19.346,0,0,1,2.38-.206c.323,0,.624-.028.659-.449h2.521c0,1.908-.033,3.816.01,5.723.018.778-.127,1.089-1.027,1.195a11.172,11.172,0,0,0-6.5,2.725,4.167,4.167,0,0,0-1.157,3.1,54.93,54.93,0,0,0-.267,6.269c.165,3.43-.252,6.849-.243,10.276a17.274,17.274,0,0,1-.2,1.921A13.113,13.113,0,0,0-504.7,547.53c.147,3.731.006,7.473-.007,11.211-1.051.668-1.465,1.852-2.224,2.759a29.272,29.272,0,0,1-6.571,6.163q-1.415-9.111-2.828-18.222C-517.012,544.98-517.679,540.517-518.355,536.054Z" transform="translate(-309.74 -0.045)" fill="#fff" opacity="0.75"/>
    <path id="Path_1589" data-name="Path 1589" d="M-833.984,504.459c.076.582.534.424.887.45,4.577.338,9.08,1.039,13.186,3.226a20.064,20.064,0,0,1,8.033,7.741c2.39,4.1,3.239,8.623,3.828,13.251.427,3.355.678,6.717.875,10.088.024.416-.026.837-.042,1.255a35.984,35.984,0,0,1-1.7-4.954,1.048,1.048,0,0,0-1.223-.869c-1.143.049-2.291.011-3.437.014a1.737,1.737,0,0,0-1.807,2.528c3.054,9.219,6.051,18.458,9.2,27.643a17.89,17.89,0,0,1,.765,6.966,41.339,41.339,0,0,1-7.895-5.122,38.464,38.464,0,0,1-8.284-10.031,3.448,3.448,0,0,1-.715-1.775c.409-.084.815-.2,1.228-.246,2.392-.252,2.405-.246,2.389-2.589-.019-2.737.247-5.5-.267-8.2a12.323,12.323,0,0,0-7.712-9.355.782.782,0,0,0,.233-.837c-.417-2.387-.118-4.794-.207-7.189-.1-2.663-.1-5.33-.264-7.988a10.736,10.736,0,0,0-1.027-4.179c-.848-1.689-2.529-2.092-4.164-2.473a19.559,19.559,0,0,0-3.15-.461c-.7-.046-.8-.359-.8-.941.019-1.984,0-3.969,0-5.953Z" transform="translate(-89.261 -0.045)" fill="#fff" opacity="0.75"/>
    <path id="Path_1590" data-name="Path 1590" d="M-560.874,604.191c.676,4.462,1.343,8.926,2.029,13.387q1.4,9.112,2.828,18.221,1.738,11.518,3.477,23.036c.1.678.221,1.353.308,2.033a1.818,1.818,0,0,1-1.906,2.212c-1.26.008-2.521-.034-3.778.016-.671.027-.906-.189-1.007-.864-.633-4.254-1.35-8.5-1.959-12.753-.141-.985-.438-1.343-1.48-1.307-2.478.083-4.961.049-7.442.013-.733-.011-1.081.162-1.192.966-.592,4.3-1.254,8.589-1.866,12.885-.107.753-.339,1.139-1.212,1.069-1.138-.091-2.288-.02-3.433-.023-1.585,0-2.305-.893-2.07-2.453.825-5.457,1.626-10.917,2.436-16.376.64-3.562,1.236-7.132,1.6-10.734.715-3.159,1.057-6.379,1.556-9.573q1.58-10.1,3.06-20.224c.13-.882.5-1.082,1.331-1.063,2.328.054,4.663.1,6.986-.015C-561.356,602.582-560.865,603.02-560.874,604.191Zm-1.58,35.688c-.366-2.637-.686-5.281-1.11-7.909-.386-2.4-.584-4.824-1.188-7.184a50.123,50.123,0,0,0-1.3-7.765l-1.662,10.973c-.138.863-.281,1.725-.414,2.589-.489,3.154-.956,6.312-1.474,9.461-.163.986.076,1.4,1.151,1.294.982-.1,1.979-.044,2.969-.057.647.015,1.294.04,1.941.042C-562.091,641.328-562.091,641.323-562.454,639.879Z" transform="translate(-267.222 -68.182)" fill="#5077c3"/>
    <path id="Path_1591" data-name="Path 1591" d="M-473.759,625.216c.013-3.738.154-7.48.007-11.211a13.114,13.114,0,0,1,5.565-11.858c7.816-4.492,17.018-.686,18.907,7.823a25.793,25.793,0,0,1,.3,5.584c0,1.869-.05,3.741.024,5.607.034.847-.245,1.129-1.054,1.189-1.367.1-2.726.321-4.092.452a1.9,1.9,0,0,1-1.751-1.839c-.011-2.785.02-5.57-.011-8.355a5.613,5.613,0,0,0-4.607-5.485,5.537,5.537,0,0,0-6.229,4.025,5.574,5.574,0,0,0-.154,1.585q0,18.541,0,37.081a5.447,5.447,0,0,0,5.4,5.618,5.54,5.54,0,0,0,5.587-5.6c.023-2.327,0-4.654.007-6.981a1.923,1.923,0,0,1,2.043-2.043c.878-.008,1.756,0,2.634,0a1.954,1.954,0,0,1,2.192,2.243,81.449,81.449,0,0,1-.174,8.686A12.344,12.344,0,0,1-461.023,662.3a12.39,12.39,0,0,1-12.467-9.866,16.6,16.6,0,0,1-.239-3.071Q-473.745,637.289-473.759,625.216Z" transform="translate(-340.685 -66.52)" fill="#5077c3"/>
    <path id="Path_1592" data-name="Path 1592" d="M-369.725,636.014c0-8.353-.016-16.705.021-25.057,0-.96-.162-1.357-1.232-1.288-1.6.1-3.2.035-4.808.024a1.906,1.906,0,0,1-2.035-2.049c-.006-.915,0-1.831,0-2.746a1.925,1.925,0,0,1,2.182-2.132q9.333,0,18.666,0a1.919,1.919,0,0,1,2.138,2.176q0,1.316,0,2.632a1.915,1.915,0,0,1-2.079,2.12c-1.565.009-3.132.053-4.694-.017-.908-.04-1.161.249-1.156,1.154.035,7.246.02,14.493.02,21.739q0,14.131,0,28.261c0,1.668-.666,2.337-2.32,2.339-.878,0-1.756,0-2.634,0a1.845,1.845,0,0,1-2.066-2.1Q-369.728,648.543-369.725,636.014Z" transform="translate(-407.297 -68.269)" fill="#5077c3"/>
    <path id="Path_1593" data-name="Path 1593" d="M-355.05,855.27a6.335,6.335,0,0,1,6.436,6.549,6.434,6.434,0,0,1-6.559,6.352A6.394,6.394,0,0,1-361.6,861.7,6.3,6.3,0,0,1-355.05,855.27Zm-.131,11.7a5.218,5.218,0,0,0,5.407-5.269,5.233,5.233,0,0,0-5.277-5.3,5.355,5.355,0,0,0-5.45,5.283A5.329,5.329,0,0,0-355.181,866.965Z" transform="translate(-418.532 -243.508)" fill="#5077c3"/>
    <path id="Path_1594" data-name="Path 1594" d="M-843.657,600.823a12.323,12.323,0,0,1,7.712,9.355c.513,2.7.248,5.464.267,8.2.016,2.344,0,2.338-2.389,2.589-.413.043-.819.162-1.228.246-.908-.2-1.944.494-2.764-.514a2.018,2.018,0,0,1-.583-1.395c.025-2.25.021-4.5.008-6.752a5.4,5.4,0,0,0-5.516-5.6,5.38,5.38,0,0,0-5.414,5.585c.027,6.08-.581,5.186,3.654,10.155q5.566,6.532,11.042,13.14A13.553,13.553,0,0,1-835.7,644.8c-.006,2.019.06,4.037-.1,6.058a12.333,12.333,0,0,1-12.344,11.308A12.315,12.315,0,0,1-860.4,650.9c-.238-3.315-.046-6.633-.117-9.948-.011-.5.125-.745.69-.793,1.481-.125,2.954-.346,4.434-.484a1.918,1.918,0,0,1,1.812,1.905c.013,2.67,0,5.34.006,8.01a5.463,5.463,0,0,0,5.429,5.712,5.468,5.468,0,0,0,5.509-5.747c0-1.64-.044-3.282.013-4.92a6.428,6.428,0,0,0-1.654-4.5c-4.2-4.99-8.37-10.006-12.617-14.955a14.43,14.43,0,0,1-3.624-9.957,23.16,23.16,0,0,1,.5-6.13,12.363,12.363,0,0,1,15.589-8.483C-844.17,600.685-843.913,600.752-843.657,600.823Z" transform="translate(-72.277 -66.389)" fill="#5077c3"/>
    <path id="Path_1595" data-name="Path 1595" d="M-955.608,632.893q0-13.907,0-27.815c0-1.7.687-2.4,2.418-2.376,3.243.045,6.492-.166,9.73.109a13.044,13.044,0,0,1,12.209,12.708,68.677,68.677,0,0,1-.151,11.087,13.187,13.187,0,0,1-12.21,11.235,39.748,39.748,0,0,1-4.007.017c-.886-.047-1.074.261-1.07,1.1.032,7.249.019,14.5.018,21.748,0,1.762-.63,2.4-2.378,2.4-.8,0-1.6,0-2.406,0a1.927,1.927,0,0,1-2.151-2.164Q-955.611,646.915-955.608,632.893Zm6.937-12.632c0,3.279.016,6.559-.013,9.838-.006.675.157.962.889.923,1.066-.058,2.137-.012,3.205-.015a6.316,6.316,0,0,0,6.5-6.282q.083-4.46,0-8.923a6.264,6.264,0,0,0-6.241-6.172c-1.107-.018-2.216.042-3.32-.018-.808-.044-1.044.241-1.035,1.038C-948.648,613.854-948.671,617.058-948.671,620.261Z" transform="translate(-6.286 -68.201)" fill="#5077c3"/>
    <path id="Path_1596" data-name="Path 1596" d="M-644.477,634.8c-3.332,2.8-7.262,3.435-11.456,3.234-1.7-.082-1.535-.229-1.537,1.5q-.009,10.736,0,21.473c0,1.647-.591,2.224-2.26,2.231-1.1,0-2.209.02-3.313.031-1.143-.667-1.3-1.733-1.291-2.937.019-5.071-.009-10.142-.02-15.214a85.512,85.512,0,0,0,.006-9.843c.009-9.861.043-19.722-.005-29.583a3.05,3.05,0,0,1,1.293-2.819c3.119.017,6.238.024,9.357.06a21.2,21.2,0,0,1,2.841.174,14.165,14.165,0,0,1,6.347,2.926,14.256,14.256,0,0,1,4.614,11.58c-.078,1.977-.065,3.962,0,5.941A14.055,14.055,0,0,1-644.477,634.8Zm-12.995-14.416c0,3.244.022,6.487-.016,9.73-.009.776.179,1.1,1.012,1.049,1.142-.067,2.29-.008,3.436-.019a6.316,6.316,0,0,0,6.239-6.073c.064-3.089.051-6.182,0-9.272a6.355,6.355,0,0,0-5.115-5.953,35.4,35.4,0,0,0-4.453-.175c-.844-.054-1.135.234-1.123,1.1C-657.446,613.977-657.472,617.182-657.472,620.387Z" transform="translate(-208.415 -68.343)" fill="#5077c3"/>
    <path id="Path_1597" data-name="Path 1597" d="M-758.912,640.213a17.888,17.888,0,0,0-.765-6.966c-3.153-9.185-6.151-18.424-9.2-27.643a1.738,1.738,0,0,1,1.807-2.528c1.146,0,2.293.035,3.437-.014a1.049,1.049,0,0,1,1.223.869,35.989,35.989,0,0,0,1.7,4.954c1.409,4.947,3.19,9.775,4.752,14.673.127.4.271.79.417,1.214.48-.274.458-.779.59-1.178,2.149-6.469,4.3-12.937,6.388-19.427a1.325,1.325,0,0,1,1.61-1.119c1.026.077,2.061.016,3.092.018,1.633,0,2.339,1.007,1.817,2.581q-4.025,12.147-8.048,24.3c-.144.434-.259.877-.387,1.316a17.348,17.348,0,0,0-1.463,4.75c-.134,2.3-.016,4.623-.006,6.936q-.018,9.034-.036,18.069c0,1.668-.668,2.344-2.313,2.346a14.958,14.958,0,0,0-2.058.016c-1.7.242-2.569-.9-2.547-2.466.093-6.442.04-12.885.037-19.328C-758.866,641.125-758.9,640.669-758.912,640.213Z" transform="translate(-135.767 -68.459)" fill="#5077c3"/>
    <path id="Path_1598" data-name="Path 1598" d="M-713.323,706.947c-.01-2.313-.127-4.631.006-6.936a17.346,17.346,0,0,1,1.463-4.75,28.144,28.144,0,0,0,9.658,3.755,16.209,16.209,0,0,0,3.823.377,85.551,85.551,0,0,1-.006,9.843A77.472,77.472,0,0,1-713.323,706.947Z" transform="translate(-174.392 -132.462)" fill="#fff" opacity="0.75"/>
    <path id="Path_1599" data-name="Path 1599" d="M-676.835,541.315a14.162,14.162,0,0,0-6.347-2.926,21.213,21.213,0,0,0-2.841-.174c-3.119-.036-6.238-.043-9.357-.06.009-4.043.117-8.089-.012-12.128a11.177,11.177,0,0,0-2.018-6.539A6.7,6.7,0,0,0-701.393,517a27.6,27.6,0,0,0-8.834-.595c-.556.053-.687-.218-.69-.645-.01-1.793-.006-3.586,0-5.379a.648.648,0,0,1,.7-.725c.267-.007.534-.007.8-.007q23.422,0,46.845-.024c1.1,0,1.474.287,1.393,1.395a27.261,27.261,0,0,0,0,3.888c.076,1.081-.237,1.46-1.372,1.418a29.191,29.191,0,0,0-7.935.631,7.105,7.105,0,0,0-5.706,5.9,40.461,40.461,0,0,0-.591,8.505C-676.822,534.679-676.819,538-676.835,541.315Z" transform="translate(-176.098 -3.627)" fill="#fff" opacity="0.75"/>
    <path id="Path_1600" data-name="Path 1600" d="M-542.876,691.512c-.991.013-1.988-.043-2.969.057-1.076.109-1.314-.308-1.151-1.294.518-3.149.985-6.307,1.474-9.461.134-.864.276-1.726.415-2.589.346-.017.463-.308.674-.513.848-.83,1.362-1.938,2.291-2.695.6,2.36.8,4.788,1.188,7.184.424,2.628.744,5.272,1.11,7.909A14.451,14.451,0,0,0-542.876,691.512Z" transform="translate(-289.831 -118.412)" fill="#fff" opacity="0.75"/>
    <path id="Path_1603" data-name="Path 1603" d="M-352.7,869.527a5.329,5.329,0,0,1-5.32-5.283,5.355,5.355,0,0,1,5.45-5.283,5.232,5.232,0,0,1,5.277,5.3A5.218,5.218,0,0,1-352.7,869.527Zm1.135-4.889c1.433-.827,1.929-1.565,1.748-2.615a2.136,2.136,0,0,0-1.937-1.827,25.264,25.264,0,0,0-2.966-.1c-.533-.013-.475.372-.476.71,0,2.21,0,4.42-.006,6.63,0,.47.041.8.658.795.577,0,.724-.239.7-.755-.028-.57-.022-1.143,0-1.714.011-.28-.165-.667.224-.8a.857.857,0,0,1,.937.271,6.945,6.945,0,0,1,.76,1.128c.276.5.474,1.041.761,1.533a1.023,1.023,0,0,0,1.341.272c.609-.223.046-.65-.077-.909A7.058,7.058,0,0,0-351.563,864.638Z" transform="translate(-421.015 -246.07)" fill="#fefefe"/>
    <path id="Path_1605" data-name="Path 1605" d="M-641.9,635.8c0-3.205.026-6.411-.017-9.615-.011-.864.279-1.151,1.123-1.1a35.39,35.39,0,0,1,4.453.175,6.355,6.355,0,0,1,5.115,5.953c.048,3.09.061,6.182,0,9.272a6.316,6.316,0,0,1-6.239,6.073c-1.146.011-2.294-.048-3.436.019-.834.049-1.021-.273-1.012-1.049C-641.875,642.29-641.9,639.046-641.9,635.8Z" transform="translate(-223.99 -83.759)" fill="#fff" opacity="0.75"/>
    <path id="Path_1606" data-name="Path 1606" d="M-345.17,867.217a7.055,7.055,0,0,1,1.669,2.618c.123.259.686.686.077.909a1.023,1.023,0,0,1-1.341-.272c-.287-.492-.485-1.034-.761-1.533a6.956,6.956,0,0,0-.76-1.128.857.857,0,0,0-.937-.271c-.388.137-.212.523-.224.8-.023.57-.029,1.143,0,1.714.025.516-.122.754-.7.755-.618,0-.66-.325-.658-.795.01-2.21,0-4.419.006-6.629,0-.338-.057-.723.476-.71a25.3,25.3,0,0,1,2.966.1,2.136,2.136,0,0,1,1.938,1.827C-343.241,865.652-343.737,866.391-345.17,867.217Zm-2.2-1.869c.054.176-.507,1.049.7,1,1.164-.051,1.82-.441,1.8-1.28-.02-1.073-.786-1.1-1.595-1.176C-347.4,863.8-347.587,864.227-347.369,865.349Z" transform="translate(-427.408 -248.65)" fill="#5077c3"/>
    <path id="Path_1607" data-name="Path 1607" d="M-344.3,868.067c-.218-1.122-.027-1.553.912-1.46.809.08,1.574.1,1.595,1.176.016.84-.64,1.229-1.8,1.28C-344.807,869.117-344.246,868.243-344.3,868.067Z" transform="translate(-430.477 -251.368)" fill="#fefefe"/>
  </g>
</svg>
