<svg id="Testimonials_Section_Quote" xmlns="http://www.w3.org/2000/svg" width="127.765" height="109.555" viewBox="0 0 127.765 109.555">
  <path id="Path_1543" data-name="Path 1543" d="M1261.6,441.357c0-8.639-.1-17.28.018-25.918.38-27.416,22.416-50.9,49.724-53.081,4.994-.4,4.994-.4,4.994,4.517,0,3.821-.082,7.645.038,11.463.052,1.649-.475,2.024-2.081,2.1-18.384.815-33.615,16.092-34.4,34.323-.069,1.593.252,2.091,1.944,2.078,10.716-.082,21.434.021,32.15-.1,2.051-.023,2.4.631,2.393,2.5q-.1,24.921,0,49.844c.008,1.888-.374,2.526-2.425,2.514q-25.048-.139-50.095-.006c-1.864.008-2.346-.44-2.325-2.317.106-9.3.048-18.608.048-27.912Z" transform="translate(-1261.536 -362.038)" fill="#e3e8f9"/>
  <path id="Path_1544" data-name="Path 1544" d="M1407.71,439.719c.251-8.157-.427-18.215.334-28.256,1.809-23.864,21.2-44.9,44.885-48.672,2.538-.4,5.115-.557,7.667-.874,1.3-.162,1.937.083,1.906,1.646q-.146,7.475,0,14.954c.031,1.527-.583,1.672-1.874,1.732a36.522,36.522,0,0,0-34.5,32.932,14.873,14.873,0,0,1-.084,1.491c-.338,1.723.481,2,2.022,1.99,10.552-.062,21.106.041,31.657-.091,2.271-.028,2.812.563,2.8,2.811q-.155,24.8-.008,49.6c.01,1.968-.5,2.449-2.452,2.44q-24.926-.122-49.853.005c-2.139.012-2.568-.653-2.544-2.65C1407.771,459.722,1407.71,450.665,1407.71,439.719Z" transform="translate(-1334.757 -361.873)" fill="#e3e8f9"/>
</svg>
